<svg width="56" height="56" viewBox="0 0 56 56" fill="none" xmlns="http://www.w3.org/2000/svg">
<path d="M26.7832 28.413C26.7289 28.3588 26.6858 28.2944 26.6564 28.2236C26.627 28.1527 26.6118 28.0767 26.6118 28C26.6118 27.9233 26.627 27.8473 26.6564 27.7764C26.6858 27.7056 26.7289 27.6412 26.7832 27.587L32.1335 22.2378C32.4618 21.9097 32.6463 21.4646 32.6464 21.0004C32.6465 20.5362 32.4623 20.091 32.1341 19.7627C31.806 19.4345 31.3609 19.25 30.8967 19.2498C30.4325 19.2497 29.9873 19.434 29.659 19.7622L24.3087 25.1125C23.5443 25.879 23.115 26.9174 23.115 28C23.115 29.0826 23.5443 30.121 24.3087 30.8875L29.659 36.2378C29.9873 36.566 30.4325 36.7503 30.8967 36.7501C31.3609 36.75 31.806 36.5655 32.1341 36.2372C32.4623 35.909 32.6465 35.4638 32.6464 34.9996C32.6463 34.5354 32.4618 34.0903 32.1335 33.7622L26.7832 28.413Z" fill="#243447"/>
</svg>
