<svg width="56" height="56" viewBox="0 0 56 56" fill="none" xmlns="http://www.w3.org/2000/svg">
<path d="M35 16.6667V18H32.2V16.6667H23.8V18H21V16.6667C21 15.9594 21.295 15.2811 21.8201 14.781C22.3452 14.281 23.0574 14 23.8 14H32.2C32.9426 14 33.6548 14.281 34.1799 14.781C34.705 15.2811 35 15.9594 35 16.6667Z" fill="#243447"/>
<path d="M39.1111 20H16.8889C16.5205 20 16.1673 20.1449 15.9068 20.4027C15.6463 20.6606 15.5 21.0103 15.5 21.375C15.5 21.7397 15.6463 22.0894 15.9068 22.3473C16.1673 22.6051 16.5205 22.75 16.8889 22.75H18.2778V39.25C18.2778 39.9793 18.5704 40.6788 19.0914 41.1945C19.6123 41.7103 20.3188 42 21.0556 42H34.9444C35.6812 42 36.3877 41.7103 36.9086 41.1945C37.4296 40.6788 37.7222 39.9793 37.7222 39.25V22.75H39.1111C39.4795 22.75 39.8327 22.6051 40.0932 22.3473C40.3537 22.0894 40.5 21.7397 40.5 21.375C40.5 21.0103 40.3537 20.6606 40.0932 20.4027C39.8327 20.1449 39.4795 20 39.1111 20ZM26.6111 35.125C26.6111 35.4897 26.4648 35.8394 26.2043 36.0973C25.9438 36.3551 25.5906 36.5 25.2222 36.5C24.8539 36.5 24.5006 36.3551 24.2401 36.0973C23.9797 35.8394 23.8333 35.4897 23.8333 35.125V26.875C23.8333 26.5103 23.9797 26.1606 24.2401 25.9027C24.5006 25.6449 24.8539 25.5 25.2222 25.5C25.5906 25.5 25.9438 25.6449 26.2043 25.9027C26.4648 26.1606 26.6111 26.5103 26.6111 26.875V35.125ZM32.1667 35.125C32.1667 35.4897 32.0203 35.8394 31.7599 36.0973C31.4994 36.3551 31.1461 36.5 30.7778 36.5C30.4094 36.5 30.0562 36.3551 29.7957 36.0973C29.5352 35.8394 29.3889 35.4897 29.3889 35.125V26.875C29.3889 26.5103 29.5352 26.1606 29.7957 25.9027C30.0562 25.6449 30.4094 25.5 30.7778 25.5C31.1461 25.5 31.4994 25.6449 31.7599 25.9027C32.0203 26.1606 32.1667 26.5103 32.1667 26.875V35.125Z" fill="#243447"/>
</svg>
