<svg width="56" height="56" viewBox="0 0 56 56" fill="none" xmlns="http://www.w3.org/2000/svg">
<path d="M34.4167 16.2365C33.103 16.2569 31.8179 16.6237 30.6913 17.2996C29.5646 17.9756 28.6363 18.9369 28 20.0865C27.3638 18.9369 26.4355 17.9756 25.3088 17.2996C24.1822 16.6237 22.8971 16.2569 21.5834 16.2365C19.4891 16.3275 17.516 17.2436 16.0951 18.7848C14.6742 20.3259 13.921 22.3668 14 24.4615C14 29.7663 19.5837 35.56 24.2667 39.4882C25.3123 40.3668 26.6343 40.8485 28 40.8485C29.3658 40.8485 30.6878 40.3668 31.7334 39.4882C36.4164 35.56 42 29.7663 42 24.4615C42.0791 22.3668 41.3259 20.3259 39.905 18.7848C38.484 17.2436 36.5109 16.3275 34.4167 16.2365Z" fill="#243447"/>
</svg>
