<svg width="56" height="56" viewBox="0 0 56 56" fill="none" xmlns="http://www.w3.org/2000/svg">
<path d="M14 36.1667C14.0019 37.7132 14.617 39.1959 15.7106 40.2894C16.8042 41.383 18.2868 41.9981 19.8333 42H36.1667C37.7132 41.9981 39.1959 41.383 40.2894 40.2894C41.383 39.1959 41.9981 37.7132 42 36.1667V25.6667H14V36.1667ZM33.8333 30.9167C34.1794 30.9167 34.5178 31.0193 34.8056 31.2116C35.0934 31.4039 35.3177 31.6772 35.4501 31.997C35.5826 32.3167 35.6172 32.6686 35.5497 33.0081C35.4822 33.3475 35.3155 33.6594 35.0708 33.9041C34.826 34.1488 34.5142 34.3155 34.1747 34.383C33.8353 34.4506 33.4834 34.4159 33.1636 34.2835C32.8439 34.151 32.5706 33.9267 32.3783 33.6389C32.186 33.3511 32.0833 33.0128 32.0833 32.6667C32.0833 32.2025 32.2677 31.7574 32.5959 31.4292C32.9241 31.101 33.3692 30.9167 33.8333 30.9167ZM28 30.9167C28.3461 30.9167 28.6845 31.0193 28.9722 31.2116C29.26 31.4039 29.4843 31.6772 29.6168 31.997C29.7492 32.3167 29.7839 32.6686 29.7164 33.0081C29.6488 33.3475 29.4822 33.6594 29.2374 33.9041C28.9927 34.1488 28.6809 34.3155 28.3414 34.383C28.0019 34.4506 27.6501 34.4159 27.3303 34.2835C27.0105 34.151 26.7372 33.9267 26.5449 33.6389C26.3526 33.3511 26.25 33.0128 26.25 32.6667C26.25 32.2025 26.4344 31.7574 26.7626 31.4292C27.0908 31.101 27.5359 30.9167 28 30.9167ZM22.1667 30.9167C22.5128 30.9167 22.8511 31.0193 23.1389 31.2116C23.4267 31.4039 23.651 31.6772 23.7835 31.997C23.9159 32.3167 23.9506 32.6686 23.883 33.0081C23.8155 33.3475 23.6488 33.6594 23.4041 33.9041C23.1594 34.1488 22.8475 34.3155 22.5081 34.383C22.1686 34.4506 21.8167 34.4159 21.497 34.2835C21.1772 34.151 20.9039 33.9267 20.7116 33.6389C20.5193 33.3511 20.4167 33.0128 20.4167 32.6667C20.4167 32.2025 20.601 31.7574 20.9292 31.4292C21.2574 31.101 21.7025 30.9167 22.1667 30.9167Z" fill="#243447"/>
<path d="M36.1667 16.3333H35V15.1667C35 14.8572 34.8771 14.5605 34.6583 14.3417C34.4395 14.1229 34.1428 14 33.8333 14C33.5239 14 33.2272 14.1229 33.0084 14.3417C32.7896 14.5605 32.6667 14.8572 32.6667 15.1667V16.3333H23.3333V15.1667C23.3333 14.8572 23.2104 14.5605 22.9916 14.3417C22.7728 14.1229 22.4761 14 22.1667 14C21.8573 14 21.5605 14.1229 21.3417 14.3417C21.1229 14.5605 21 14.8572 21 15.1667V16.3333H19.8333C18.2868 16.3352 16.8042 16.9504 15.7106 18.0439C14.617 19.1375 14.0019 20.6201 14 22.1667V23.3333H42V22.1667C41.9982 20.6201 41.383 19.1375 40.2894 18.0439C39.1959 16.9504 37.7132 16.3352 36.1667 16.3333Z" fill="#243447"/>
</svg>
