<svg width="56" height="56" viewBox="0 0 56 56" fill="none" xmlns="http://www.w3.org/2000/svg">
<path d="M32.8 27L23.2 22M32.8 29L23.2 34M32.5 28C32.5 29.3807 33.6193 30.5 35 30.5C36.3807 30.5 37.5 29.3807 37.5 28C37.5 26.6193 36.3807 25.5 35 25.5C33.6193 25.5 32.5 26.6193 32.5 28ZM18.5 21C18.5 22.3807 19.6193 23.5 21 23.5C22.3807 23.5 23.5 22.3807 23.5 21C23.5 19.6193 22.3807 18.5 21 18.5C19.6193 18.5 18.5 19.6193 18.5 21ZM18.5 35C18.5 36.3807 19.6193 37.5 21 37.5C22.3807 37.5 23.5 36.3807 23.5 35C23.5 33.6193 22.3807 32.5 21 32.5C19.6193 32.5 18.5 33.6193 18.5 35Z" stroke="#243447" stroke-width="1.75" stroke-linecap="round"/>
</svg>
