<svg width="56" height="56" viewBox="0 0 56 56" fill="none" xmlns="http://www.w3.org/2000/svg">
<path d="M15.8749 35C16.8399 36.6749 18.98 37.2503 20.6548 36.2853L20.6582 36.2833L21.1774 35.9834C22.1574 36.8219 23.2838 37.4721 24.5 37.9014V38.5C24.5 40.433 26.067 42 28 42C29.933 42 31.5 40.433 31.5 38.5V37.9015C32.7164 37.4715 33.8429 36.8205 34.8227 35.9811L35.3442 36.2821C37.0194 37.2486 39.161 36.6741 40.1275 34.9988C41.094 33.3236 40.5195 31.1819 38.8442 30.2154L38.3262 29.9168C38.5594 28.648 38.5594 27.3473 38.3262 26.0784L38.8442 25.7798C40.5194 24.8133 41.094 22.6717 40.1275 20.9964C39.161 19.3212 37.0195 18.7466 35.3442 19.7131L34.825 20.0129C33.844 19.1755 32.7168 18.5265 31.5 18.0985V17.5C31.5 15.567 29.933 14 28 14C26.067 14 24.5 15.567 24.5 17.5V18.0985C23.2837 18.5285 22.1571 19.1795 21.1774 20.0189L20.6559 19.7167C18.9806 18.7502 16.839 19.3248 15.8725 21C14.906 22.6752 15.4806 24.8169 17.1559 25.7834L17.6739 26.082C17.4407 27.3508 17.4407 28.6515 17.6739 29.9204L17.1559 30.219C15.4852 31.1881 14.9125 33.3255 15.8749 35ZM28 23.3334C30.5773 23.3334 32.6667 25.4227 32.6667 28C32.6667 30.5773 30.5773 32.6666 28 32.6666C25.4227 32.6666 23.3334 30.5773 23.3334 28C23.3334 25.4227 25.4227 23.3334 28 23.3334Z" fill="#243447"/>
</svg>
