<svg width="56" height="56" viewBox="0 0 56 56" fill="none" xmlns="http://www.w3.org/2000/svg">
<path d="M28 14C20.268 14 14 20.268 14 28C14 35.732 20.268 42 28 42C35.732 42 42 35.732 42 28C41.9916 20.2715 35.7285 14.0084 28 14ZM32.6666 31.0181C33.1407 31.4545 33.1714 32.1926 32.735 32.6666C32.2987 33.1407 31.5606 33.1714 31.0865 32.735C31.0628 32.7132 31.04 32.6904 31.0181 32.6666L28 29.6496L24.983 32.6666C24.5195 33.1143 23.781 33.1014 23.3334 32.6379C22.8967 32.1858 22.8967 31.4691 23.3334 31.017L26.3504 28L23.3334 24.983C22.8857 24.5195 22.8986 23.781 23.3621 23.3334C23.8142 22.8967 24.5309 22.8967 24.983 23.3334L28 26.3504L31.0181 23.3334C31.4545 22.8593 32.1926 22.8286 32.6666 23.265C33.1407 23.7013 33.1714 24.4394 32.735 24.9135C32.7132 24.9372 32.6904 24.96 32.6666 24.9819L29.6496 28L32.6666 31.0181Z" fill="#243447"/>
</svg>
