<svg width="56" height="56" viewBox="0 0 56 56" fill="none" xmlns="http://www.w3.org/2000/svg">
<path d="M14 28C14 30.7689 14.8211 33.4757 16.3594 35.778C17.8978 38.0803 20.0843 39.8747 22.6424 40.9343C25.2006 41.9939 28.0155 42.2712 30.7313 41.731C33.447 41.1908 35.9416 39.8574 37.8995 37.8995C39.8574 35.9416 41.1908 33.447 41.731 30.7313C42.2712 28.0155 41.9939 25.2006 40.9343 22.6424C39.8747 20.0843 38.0803 17.8978 35.778 16.3594C33.4757 14.8211 30.7689 14 28 14C24.2882 14.004 20.7296 15.4803 18.1049 18.1049C15.4803 20.7296 14.004 24.2882 14 28ZM32.6667 28C32.6675 28.854 32.3554 29.6787 31.7893 30.3182C31.4498 30.6997 31.1197 31.0613 30.8828 31.2982L27.5882 34.65C27.3686 34.8563 27.0778 34.9696 26.7765 34.9663C26.4753 34.963 26.187 34.8433 25.972 34.6322C25.757 34.4212 25.632 34.1351 25.6232 33.834C25.6143 33.5329 25.7223 33.24 25.9245 33.0167L29.225 29.6567C29.4432 29.4373 29.7395 29.1107 30.0417 28.7712C30.2297 28.558 30.3334 28.2836 30.3334 27.9994C30.3334 27.7152 30.2297 27.4408 30.0417 27.2277C29.7407 26.8893 29.4443 26.5627 29.2332 26.3503L25.9245 22.9833C25.7223 22.76 25.6143 22.4671 25.6232 22.166C25.632 21.8649 25.757 21.5788 25.972 21.3678C26.187 21.1567 26.4753 21.037 26.7765 21.0337C27.0778 21.0304 27.3686 21.1437 27.5882 21.35L30.8887 24.7077C31.122 24.941 31.4487 25.2992 31.7858 25.6795C32.354 26.3188 32.6675 27.1447 32.6667 28Z" fill="#243447"/>
</svg>
