<svg width="56" height="56" viewBox="0 0 56 56" fill="none" xmlns="http://www.w3.org/2000/svg">
<path d="M25.4479 33.8333V41.4633C24.3686 41.0558 23.3884 40.4235 22.572 39.6083L18.5074 35.5413C17.6913 34.726 17.0585 33.746 16.6512 32.6667H24.2812C24.5906 32.6667 24.8874 32.7896 25.1062 33.0084C25.3249 33.2272 25.4479 33.5239 25.4479 33.8333ZM16.1145 29.7675V19.8333C16.1164 18.2868 16.7316 16.8042 17.8251 15.7106C18.9187 14.617 20.4013 14.0019 21.9479 14H33.6145C35.1611 14.0019 36.6437 14.617 37.7373 15.7106C38.8308 16.8042 39.446 18.2868 39.4479 19.8333V36.1667C39.446 37.7132 38.8308 39.1958 37.7373 40.2894C36.6437 41.383 35.1611 41.9981 33.6145 42H28.347C28.1569 42 27.969 41.9848 27.7812 41.972V33.8333C27.7812 32.9051 27.4125 32.0148 26.7561 31.3585C26.0997 30.7021 25.2095 30.3333 24.2812 30.3333H16.1425C16.1297 30.1455 16.1145 29.9577 16.1145 29.7675ZM25.4479 19.8333C25.4479 20.1428 25.5708 20.4395 25.7896 20.6583C26.0084 20.8771 26.3051 21 26.6145 21H32.4479C32.7573 21 33.054 20.8771 33.2728 20.6583C33.4916 20.4395 33.6145 20.1428 33.6145 19.8333C33.6145 19.5239 33.4916 19.2272 33.2728 19.0084C33.054 18.7896 32.7573 18.6667 32.4479 18.6667H26.6145C26.3051 18.6667 26.0084 18.7896 25.7896 19.0084C25.5708 19.2272 25.4479 19.5239 25.4479 19.8333ZM21.9479 24.5C21.9479 24.8094 22.0708 25.1062 22.2896 25.325C22.5084 25.5438 22.8051 25.6667 23.1145 25.6667H32.4479C32.7573 25.6667 33.054 25.5438 33.2728 25.325C33.4916 25.1062 33.6145 24.8094 33.6145 24.5C33.6145 24.1906 33.4916 23.8938 33.2728 23.675C33.054 23.4563 32.7573 23.3333 32.4479 23.3333H23.1145C22.8051 23.3333 22.5084 23.4563 22.2896 23.675C22.0708 23.8938 21.9479 24.1906 21.9479 24.5Z" fill="#243447"/>
</svg>
