<svg width="56" height="56" viewBox="0 0 56 56" fill="none" xmlns="http://www.w3.org/2000/svg">
<path d="M41.7914 17.8582L33.896 40.1127C33.7071 40.6654 33.3507 41.1446 32.877 41.4831C32.4033 41.8216 31.836 42.0023 31.2549 41.9998C30.6804 42.0064 30.1181 41.8339 29.6452 41.5059C29.1722 41.178 28.8119 40.7108 28.6138 40.1686L25.6669 32.4522L31.2688 26.8187C31.5305 26.5555 31.6776 26.1985 31.6776 25.8262C31.6776 25.454 31.5305 25.0969 31.2688 24.8337C31.007 24.5705 30.652 24.4226 30.2818 24.4226C29.9117 24.4226 29.5566 24.5705 29.2949 24.8337L25.8337 28.3145L23.6374 30.4812L15.9782 27.5037C15.4063 27.3304 14.905 26.9765 14.5487 26.4943C14.1924 26.0122 14 25.4274 14 24.8267C14 24.226 14.1924 23.6413 14.5487 23.1591C14.905 22.677 15.4063 22.323 15.9782 22.1498L38.1634 14.2097C38.6707 14.0001 39.2284 13.9461 39.7662 14.0545C40.304 14.1629 40.7979 14.4288 41.1857 14.8189C41.5736 15.2089 41.838 15.7056 41.9458 16.2464C42.0536 16.7872 41.9999 17.348 41.7914 17.8582Z" fill="#243447"/>
</svg>
