<svg width="56" height="56" viewBox="0 0 56 56" fill="none" xmlns="http://www.w3.org/2000/svg">
<path d="M28 14C25.2311 14 22.5243 14.8211 20.222 16.3594C17.9197 17.8978 16.1253 20.0843 15.0657 22.6424C14.0061 25.2006 13.7288 28.0155 14.269 30.7313C14.8092 33.447 16.1426 35.9416 18.1005 37.8995C20.0584 39.8574 22.553 41.1908 25.2687 41.731C27.9845 42.2712 30.7994 41.9939 33.3576 40.9343C35.9157 39.8747 38.1022 38.0803 39.6406 35.778C41.1789 33.4757 42 30.7689 42 28C41.996 24.2882 40.5197 20.7296 37.8951 18.1049C35.2704 15.4803 31.7118 14.004 28 14ZM32.6667 29.1667H29.1667V32.6667C29.1667 32.9761 29.0438 33.2728 28.825 33.4916C28.6062 33.7104 28.3094 33.8333 28 33.8333C27.6906 33.8333 27.3938 33.7104 27.175 33.4916C26.9563 33.2728 26.8333 32.9761 26.8333 32.6667V29.1667H23.3333C23.0239 29.1667 22.7272 29.0438 22.5084 28.825C22.2896 28.6062 22.1667 28.3094 22.1667 28C22.1667 27.6906 22.2896 27.3938 22.5084 27.175C22.7272 26.9563 23.0239 26.8333 23.3333 26.8333H26.8333V23.3333C26.8333 23.0239 26.9563 22.7272 27.175 22.5084C27.3938 22.2896 27.6906 22.1667 28 22.1667C28.3094 22.1667 28.6062 22.2896 28.825 22.5084C29.0438 22.7272 29.1667 23.0239 29.1667 23.3333V26.8333H32.6667C32.9761 26.8333 33.2728 26.9563 33.4916 27.175C33.7104 27.3938 33.8333 27.6906 33.8333 28C33.8333 28.3094 33.7104 28.6062 33.4916 28.825C33.2728 29.0438 32.9761 29.1667 32.6667 29.1667Z" fill="#243447"/>
</svg>
