<svg width="56" height="56" viewBox="0 0 56 56" fill="none" xmlns="http://www.w3.org/2000/svg">
<path d="M29.1667 28C29.1667 28.6443 28.6444 29.1667 28 29.1667C27.3557 29.1667 26.8334 28.6443 26.8334 28C26.8334 27.3557 27.3557 26.8333 28 26.8333C28.6444 26.8333 29.1667 27.3557 29.1667 28Z" stroke="#33363F" stroke-width="2" stroke-linecap="round"/>
<path d="M22.1667 28C22.1667 28.6443 21.6444 29.1667 21 29.1667C20.3557 29.1667 19.8334 28.6443 19.8334 28C19.8334 27.3557 20.3557 26.8333 21 26.8333C21.6444 26.8333 22.1667 27.3557 22.1667 28Z" stroke="#33363F" stroke-width="2" stroke-linecap="round"/>
<path d="M36.1667 28C36.1667 28.6443 35.6444 29.1667 35 29.1667C34.3557 29.1667 33.8334 28.6443 33.8334 28C33.8334 27.3557 34.3557 26.8333 35 26.8333C35.6444 26.8333 36.1667 27.3557 36.1667 28Z" stroke="#33363F" stroke-width="2" stroke-linecap="round"/>
</svg>
