<svg width="56" height="56" viewBox="0 0 56 56" fill="none" xmlns="http://www.w3.org/2000/svg">
<path d="M18.746 35H37.0113C37.5735 35 38.1274 34.8646 38.6261 34.6053C39.1249 34.346 39.5538 33.9703 39.8766 33.5101C40.1995 33.0499 40.4068 32.5188 40.4809 31.9615C40.555 31.4043 40.4938 30.8374 40.3025 30.3088L36.9752 21.1097C36.4069 19.0653 35.1847 17.2634 33.4954 15.9794C31.8061 14.6955 29.7427 14.0002 27.6208 14C25.412 14 23.2692 14.7532 21.5463 16.1353C19.8233 17.5174 18.6232 19.4458 18.144 21.602L15.4023 30.4687C15.2409 30.9921 15.2046 31.5462 15.2964 32.0863C15.3882 32.6263 15.6054 33.1373 15.9307 33.5781C16.2559 34.0189 16.6801 34.3772 17.1691 34.6242C17.6581 34.8711 18.1982 34.9998 18.746 35Z" fill="#243447"/>
<path d="M22.2833 37.3333C22.5511 38.652 23.2665 39.8376 24.3084 40.6891C25.3502 41.5407 26.6544 42.0058 28 42.0058C29.3456 42.0058 30.6498 41.5407 31.6916 40.6891C32.7335 39.8376 33.4489 38.652 33.7167 37.3333H22.2833Z" fill="#243447"/>
</svg>
