<svg width="56" height="56" viewBox="0 0 56 56" fill="none" xmlns="http://www.w3.org/2000/svg">
<path d="M29.2169 27.587C29.2712 27.6412 29.3143 27.7056 29.3437 27.7764C29.3731 27.8473 29.3882 27.9233 29.3882 28C29.3882 28.0767 29.3731 28.1527 29.3437 28.2236C29.3143 28.2944 29.2712 28.3588 29.2169 28.413L23.8665 33.7622C23.5382 34.0903 23.3537 34.5354 23.3536 34.9996C23.3535 35.4638 23.5378 35.909 23.866 36.2372C24.1941 36.5655 24.6392 36.75 25.1034 36.7501C25.5675 36.7503 26.0127 36.566 26.341 36.2378L31.6914 30.8875C32.4558 30.121 32.8851 29.0826 32.8851 28C32.8851 26.9174 32.4558 25.879 31.6914 25.1125L26.341 19.7622C26.0127 19.434 25.5675 19.2497 25.1034 19.2498C24.6392 19.25 24.1941 19.4345 23.866 19.7627C23.5378 20.091 23.3535 20.5362 23.3536 21.0004C23.3537 21.4646 23.5382 21.9097 23.8665 22.2378L29.2169 27.587Z" fill="#243447"/>
</svg>
