<svg width="56" height="56" viewBox="0 0 56 56" fill="none" xmlns="http://www.w3.org/2000/svg">
<path d="M18.6666 14H22.1666C24.744 14 26.8333 16.0893 26.8333 18.6666V22.1666C26.8333 24.744 24.744 26.8333 22.1666 26.8333H18.6666C16.0893 26.8334 14 24.744 14 22.1666V18.6666C14 16.0893 16.0893 14 18.6666 14Z" fill="#243447"/>
<path d="M33.8334 14H37.3334C39.9107 14 42 16.0893 42 18.6666V22.1666C42 24.744 39.9107 26.8333 37.3334 26.8333H33.8334C31.256 26.8333 29.1667 24.744 29.1667 22.1666V18.6666C29.1666 16.0893 31.256 14 33.8334 14Z" fill="#243447"/>
<path d="M18.6666 29.1666H22.1666C24.744 29.1666 26.8333 31.256 26.8333 33.8333V37.3333C26.8333 39.9106 24.744 41.9999 22.1666 41.9999H18.6666C16.0893 42 14 39.9107 14 37.3334V33.8334C14 31.256 16.0893 29.1666 18.6666 29.1666Z" fill="#243447"/>
<path d="M33.8334 29.1666H37.3334C39.9107 29.1666 42 31.256 42 33.8333V37.3333C42 39.9107 39.9107 42 37.3334 42H33.8334C31.256 42 29.1667 39.9107 29.1667 37.3334V33.8334C29.1666 31.256 31.256 29.1666 33.8334 29.1666Z" fill="#243447"/>
</svg>
