<svg width="56" height="56" viewBox="0 0 56 56" fill="none" xmlns="http://www.w3.org/2000/svg">
<path d="M39.2222 25.795C38.248 25.7203 37.415 26.4378 37.3392 27.4003C36.8562 33.4763 33.7155 36.5563 28 36.5563C22.2845 36.5563 19.1439 33.4763 18.6609 27.4003C18.585 26.4367 17.7532 25.7192 16.7779 25.795C15.8142 25.8708 15.0955 26.7143 15.1725 27.678C16.0592 38.8512 24.4382 40.0563 28 40.0563C31.5619 40.0563 39.9409 38.85 40.8275 27.678C40.9045 26.7143 40.1847 25.872 39.2222 25.795Z" fill="#243447"/>
<path d="M24.8629 26.313C25.4952 26.313 26.0085 26.8357 26.0085 27.4797C26.0085 28.1237 25.4952 28.6463 24.8629 28.6463H20.7877C21.574 32.5967 23.9179 34.4622 27.9989 34.4622C32.0799 34.4622 34.4249 32.5967 35.21 28.6463H31.136C30.5037 28.6463 29.9904 28.1237 29.9904 27.4797C29.9904 26.8357 30.5037 26.313 31.136 26.313H35.4842C35.5017 25.9548 35.511 25.585 35.511 25.2023C35.511 24.8197 35.5017 24.4498 35.4842 24.0928H31.136C30.5037 24.0928 29.9904 23.5702 29.9904 22.9262C29.9904 22.2822 30.5037 21.7595 31.136 21.7595H35.2112C34.4249 17.8092 32.081 15.9437 28 15.9437C23.919 15.9437 21.574 17.8092 20.7889 21.7595H24.8629C25.4952 21.7595 26.0085 22.2822 26.0085 22.9262C26.0085 23.5702 25.4952 24.0928 24.8629 24.0928H20.5147C20.4972 24.451 20.4879 24.8208 20.4879 25.2035C20.4879 25.5862 20.4972 25.956 20.5147 26.313H24.8629Z" fill="#243447"/>
</svg>
