<svg width="56" height="56" viewBox="0 0 56 56" fill="none" xmlns="http://www.w3.org/2000/svg">
<path d="M40.25 26.25H15.75C14.7835 26.25 14 27.0335 14 28C14 28.9665 14.7835 29.75 15.75 29.75H40.25C41.2165 29.75 42 28.9665 42 28C42 27.0335 41.2165 26.25 40.25 26.25Z" fill="#243447"/>
<path d="M15.75 21.5833H40.25C41.2165 21.5833 42 20.7998 42 19.8333C42 18.8669 41.2165 18.0833 40.25 18.0833H15.75C14.7835 18.0833 14 18.8669 14 19.8333C14 20.7998 14.7835 21.5833 15.75 21.5833Z" fill="#243447"/>
<path d="M40.25 34.4166H15.75C14.7835 34.4166 14 35.2001 14 36.1666C14 37.1331 14.7835 37.9166 15.75 37.9166H40.25C41.2165 37.9166 42 37.1331 42 36.1666C42 35.2001 41.2165 34.4166 40.25 34.4166Z" fill="#243447"/>
</svg>
