<svg width="56" height="56" viewBox="0 0 56 56" fill="none" xmlns="http://www.w3.org/2000/svg">
<path d="M25.6667 26.8333V33.8333M30.3333 26.8333V33.8333M36.1667 21V37.3333C36.1667 37.9522 35.9208 38.5457 35.4832 38.9832C35.0457 39.4208 34.4522 39.6667 33.8333 39.6667H22.1667C21.5478 39.6667 20.9543 39.4208 20.5168 38.9832C20.0792 38.5457 19.8333 37.9522 19.8333 37.3333V21M17.5 21H38.5M23.3333 21V18.6667C23.3333 18.0478 23.5792 17.4543 24.0168 17.0167C24.4543 16.5792 25.0478 16.3333 25.6667 16.3333H30.3333C30.9522 16.3333 31.5457 16.5792 31.9832 17.0167C32.4208 17.4543 32.6667 18.0478 32.6667 18.6667V21" stroke="#243447" stroke-width="1.75" stroke-linecap="round" stroke-linejoin="round"/>
</svg>
