<svg width="56" height="56" viewBox="0 0 56 56" fill="none" xmlns="http://www.w3.org/2000/svg">
<path d="M14.0003 27.9837C13.9884 30.9755 16.4041 33.4105 19.3959 33.4224C20.7738 33.4278 22.102 32.9081 23.1101 31.9688L31.1828 35.6137C31.1267 35.9155 31.096 36.2215 31.0908 36.5284C31.0813 39.5408 33.5156 41.9906 36.528 42.0001C39.5404 42.0097 41.9901 39.5754 41.9997 36.5629C42.0092 33.5505 39.5749 31.1008 36.5625 31.0912C34.7627 31.0856 33.076 31.9681 32.0545 33.4499L24.4699 30.0252C25.0086 28.7244 25.0107 27.2632 24.4758 25.9608L32.0498 22.5187C33.7553 24.9854 37.1376 25.6024 39.6043 23.8969C42.071 22.1914 42.688 18.8092 40.9824 16.3425C39.2769 13.8758 35.8947 13.2588 33.4279 14.9643C31.9589 15.98 31.0833 17.6531 31.0861 19.4391C31.091 19.7465 31.1222 20.0528 31.1793 20.3549L23.1276 24.0137C20.9461 21.9653 17.5171 22.0732 15.4686 24.2547C14.5206 25.2644 13.9952 26.5987 14.0003 27.9837Z" fill="#243447"/>
</svg>
