<svg width="56" height="56" viewBox="0 0 56 56" fill="none" xmlns="http://www.w3.org/2000/svg">
<path d="M28 31.4913C26.067 31.4913 24.5 33.0583 24.5 34.9913V41.9913H31.5V34.9913C31.5 33.0583 29.933 31.4913 28 31.4913Z" fill="#243447"/>
<path d="M33.8334 34.9913V41.9913H38.5C40.433 41.9913 42 40.4243 42 38.4913V27.8502C42.0003 27.2441 41.7647 26.6616 41.3431 26.2262L31.4289 15.508C29.6795 13.6152 26.727 13.499 24.8343 15.2484C24.7444 15.3315 24.6578 15.418 24.5747 15.508L14.6779 26.2227C14.2435 26.6599 13.9998 27.2513 14 27.8677V38.4913C14 40.4243 15.567 41.9913 17.5 41.9913H22.1666V34.9913C22.1885 31.81 24.757 29.2121 27.8581 29.1373C31.063 29.06 33.8089 31.7021 33.8334 34.9913Z" fill="#243447"/>
<path d="M28 31.4913C26.067 31.4913 24.5 33.0583 24.5 34.9913V41.9913H31.5V34.9913C31.5 33.0583 29.933 31.4913 28 31.4913Z" fill="#243447"/>
</svg>
