<svg width="56" height="56" viewBox="0 0 56 56" fill="none" xmlns="http://www.w3.org/2000/svg">
<path d="M38.0624 30.7987C40.2371 30.7987 42 32.209 42 33.9486V35.2157C42 36.7468 41.1644 38.2016 39.7122 39.199C36.9726 41.0805 33.0519 42 27.9942 42C22.9375 42 19.0194 41.0808 16.2843 39.1997C14.8342 38.2024 14 36.7487 14 35.2188V33.9486C14 32.209 15.7629 30.7987 17.9376 30.7987H38.0624ZM27.8167 14.0096L27.9948 14C28.6593 14 29.2085 14.395 29.2954 14.9075L29.3074 15.05L29.306 16.0985L35.432 16.0992C37.6066 16.0992 39.3696 17.5095 39.3696 19.2492V25.5554C39.3696 27.295 37.6066 28.7053 35.432 28.7053H20.5565C18.3818 28.7053 16.6189 27.295 16.6189 25.5554V19.2492C16.6189 17.5095 18.3818 16.0992 20.5565 16.0992L26.6809 16.0985L26.6823 15.05C26.6823 14.5184 27.1761 14.0791 27.8167 14.0096ZM24.0554 20.2991C22.8479 20.2991 21.869 21.0822 21.869 22.0481C21.869 23.014 22.8479 23.797 24.0554 23.797C25.2628 23.797 26.2417 23.014 26.2417 22.0481C26.2417 21.0822 25.2628 20.2991 24.0554 20.2991ZM31.9179 20.2991C30.7104 20.2991 29.7316 21.0822 29.7316 22.0481C29.7316 23.014 30.7104 23.797 31.9179 23.797C33.1254 23.797 34.1042 23.014 34.1042 22.0481C34.1042 21.0822 33.1254 20.2991 31.9179 20.2991Z" fill="#243447"/>
</svg>
