<svg width="56" height="56" viewBox="0 0 56 56" fill="none" xmlns="http://www.w3.org/2000/svg">
<path d="M28 36.1667V39.6667M28 36.1667C30.1659 36.1667 32.2431 35.3062 33.7747 33.7747C35.3062 32.2432 36.1666 30.1659 36.1666 28V25.6667M28 36.1667C25.834 36.1667 23.7568 35.3062 22.2253 33.7747C20.6937 32.2432 19.8333 30.1659 19.8333 28V25.6667M28 16.3333C29.933 16.3333 31.5 17.9003 31.5 19.8333V28C31.5 29.933 29.933 31.5 28 31.5C26.067 31.5 24.5 29.933 24.5 28V19.8333C24.5 17.9003 26.067 16.3333 28 16.3333Z" stroke="#243447" stroke-width="1.75" stroke-linecap="round" stroke-linejoin="round"/>
</svg>
