<svg width="56" height="56" viewBox="0 0 56 56" fill="none" xmlns="http://www.w3.org/2000/svg">
<path d="M38.2667 19.0085C38.0441 18.8101 37.7541 18.7045 37.4561 18.7132C37.1581 18.722 36.8747 18.8445 36.6642 19.0556C36.4537 19.2667 36.332 19.5504 36.3241 19.8484C36.3162 20.1464 36.4227 20.4362 36.6217 20.6582C38.5656 22.6071 39.6573 25.2474 39.6573 28C39.6573 30.7526 38.5656 33.3929 36.6217 35.3418C36.5032 35.4474 36.4075 35.5761 36.3405 35.7199C36.2735 35.8638 36.2365 36.0198 36.2318 36.1784C36.2272 36.3371 36.2549 36.495 36.3134 36.6425C36.3718 36.7901 36.4598 36.9241 36.5719 37.0365C36.6839 37.1489 36.8177 37.2372 36.9651 37.2961C37.1125 37.355 37.2703 37.3832 37.429 37.379C37.5876 37.3748 37.7437 37.3382 37.8878 37.2716C38.0318 37.205 38.1607 37.1097 38.2667 36.9915C40.648 34.605 41.9855 31.3714 41.9855 28C41.9855 24.6286 40.648 21.395 38.2667 19.0085Z" fill="#243447"/>
<path d="M35.1085 22.5085C35.0009 22.3971 34.8721 22.3082 34.7298 22.247C34.5875 22.1859 34.4344 22.1537 34.2795 22.1524C34.1246 22.151 33.9709 22.1805 33.8276 22.2392C33.6842 22.2979 33.5539 22.3845 33.4444 22.494C33.3348 22.6036 33.2482 22.7338 33.1895 22.8772C33.1309 23.0206 33.1014 23.1742 33.1027 23.3291C33.1041 23.484 33.1362 23.6371 33.1974 23.7795C33.2585 23.9218 33.3474 24.0505 33.4588 24.1582C34.4758 25.1781 35.0468 26.5597 35.0468 28C35.0468 29.4403 34.4758 30.8219 33.4588 31.8418C33.3474 31.9495 33.2585 32.0782 33.1974 32.2205C33.1362 32.3629 33.1041 32.516 33.1027 32.6709C33.1014 32.8258 33.1309 32.9794 33.1895 33.1228C33.2482 33.2662 33.3348 33.3964 33.4444 33.506C33.5539 33.6155 33.6842 33.7021 33.8276 33.7608C33.9709 33.8195 34.1246 33.849 34.2795 33.8476C34.4344 33.8463 34.5875 33.8141 34.7298 33.753C34.8721 33.6918 35.0009 33.6029 35.1085 33.4915C36.5626 32.0338 37.3792 30.0589 37.3792 28C37.3792 25.9411 36.5626 23.9662 35.1085 22.5085Z" fill="#243447"/>
<path d="M30.1222 14.2415C26.5773 14.9069 23.4235 16.9087 21.3127 19.8333H19.8333C18.2868 19.8352 16.8042 20.4504 15.7106 21.5439C14.617 22.6375 14.0019 24.1201 14 25.6667V30.3333C14.0019 31.8799 14.617 33.3625 15.7106 34.4561C16.8042 35.5496 18.2868 36.1648 19.8333 36.1667H21.3138C23.4241 39.0914 26.5775 41.0933 30.1222 41.7585C30.2904 41.7895 30.4634 41.7831 30.6288 41.7397C30.7943 41.6964 30.9482 41.6172 31.0797 41.5078C31.2112 41.3984 31.317 41.2614 31.3896 41.1065C31.4622 40.9517 31.4999 40.7827 31.5 40.6117V15.3883C31.4999 15.2173 31.4622 15.0483 31.3896 14.8935C31.317 14.7386 31.2112 14.6016 31.0797 14.4922C30.9482 14.3828 30.7943 14.3036 30.6288 14.2603C30.4634 14.2169 30.2904 14.2105 30.1222 14.2415Z" fill="#243447"/>
</svg>
