<svg width="56" height="56" viewBox="0 0 56 56" fill="none" xmlns="http://www.w3.org/2000/svg">
<path d="M32.8251 26.6008H29.866V23.0387C29.866 22.0066 29.0327 21.1703 28.0006 21.1703C26.9685 21.1703 26.1352 22.0066 26.1352 23.0387V28.4692C26.1352 28.9653 26.3304 29.4397 26.6809 29.7901C27.0313 30.1406 27.5063 30.3376 28.0018 30.3376L32.8275 30.337C33.8602 30.337 34.6953 29.5007 34.6953 28.4686C34.6959 27.4365 33.8578 26.6008 32.8251 26.6008Z" fill="#243447"/>
<path d="M37.0809 38.1992C39.6859 35.7676 41.3169 32.3051 41.3169 28.4692C41.3169 25.9289 40.6014 23.5523 39.3621 21.5304L40.2092 20.4784C41.2752 19.1544 40.605 16.8455 38.7119 15.3215L38.6339 15.2587C37.7251 14.5269 36.6501 14.0773 35.6458 14.0097C34.6403 13.9414 33.7895 14.261 33.2771 14.8961L32.4528 15.9198C31.0594 15.4243 29.5614 15.1529 28.0006 15.1529C26.4343 15.1529 24.9315 15.4255 23.5351 15.924L22.706 14.8955C22.1948 14.2598 21.3428 13.9402 20.3379 14.0091C19.3336 14.0767 18.2574 14.5263 17.3492 15.2581L17.2718 15.3215C15.3786 16.8455 14.7085 19.1544 15.775 20.4784L16.6319 21.5425C15.3974 23.5619 14.6843 25.9343 14.6843 28.4692C14.6843 32.3051 16.3152 35.7676 18.9196 38.1992L17.9486 39.5213C17.4392 40.2138 17.5884 41.1891 18.2809 41.6979C18.5589 41.9021 18.8816 42 19.2018 42C19.6804 42 20.153 41.7806 20.4581 41.3649L21.4274 40.0458C23.3677 41.1522 25.6113 41.7849 28.0006 41.7849C30.3899 41.7849 32.6335 41.1522 34.5738 40.0458L35.5431 41.3649C35.8476 41.7806 36.3208 42 36.7987 42C37.119 42 37.4417 41.9015 37.7197 41.6979C38.4121 41.1891 38.562 40.2138 38.0532 39.5213L37.0809 38.1992ZM18.3982 28.4692C18.3982 23.1746 22.7054 18.8674 28 18.8668C33.2946 18.8668 37.6024 23.1746 37.6024 28.4692C37.6024 33.7638 33.2958 38.071 28 38.071C22.7054 38.071 18.3982 33.7638 18.3982 28.4692Z" fill="#243447"/>
</svg>
