<svg width="56" height="56" viewBox="0 0 56 56" fill="none" xmlns="http://www.w3.org/2000/svg">
<path d="M41.4878 39.0196L36.0685 33.598C40.1235 28.1791 39.0178 20.4989 33.5989 16.4439C28.18 12.3889 20.4998 13.4946 16.4448 18.9135C12.3898 24.3324 13.4955 32.0125 18.9144 36.0675C23.2673 39.3249 29.2459 39.3249 33.5989 36.0675L39.0205 41.4892C39.7018 42.1705 40.8065 42.1705 41.4877 41.4892C42.1691 40.8078 42.1691 39.7032 41.4877 39.0219L41.4878 39.0196ZM26.3018 35.0211C21.4858 35.0211 17.5816 31.117 17.5816 26.3009C17.5816 21.4848 21.4858 17.5807 26.3018 17.5807C31.1179 17.5807 35.022 21.4848 35.022 26.3009C35.0169 31.1148 31.1158 35.016 26.3018 35.0211Z" fill="#243447"/>
</svg>
