<svg width="56" height="56" viewBox="0 0 56 56" fill="none" xmlns="http://www.w3.org/2000/svg">
<path d="M36.9542 17.2177C35.476 15.9876 33.7591 15.077 31.9116 14.5433C30.0641 14.0096 28.1261 13.8643 26.2197 14.1167C22.693 14.5748 19.4727 16.358 17.213 19.1042C14.9532 21.8503 13.8232 25.3536 14.0525 28.9026C14.2817 32.4516 15.8531 35.7803 18.4474 38.2128C21.0418 40.6454 24.4647 41.9994 28.021 42H36.1667C37.7132 41.9981 39.1959 41.383 40.2895 40.2894C41.383 39.1959 41.9982 37.7132 42 36.1667V27.1203C41.8766 25.2134 41.3654 23.3516 40.4978 21.6489C39.6302 19.9462 38.4245 18.4384 36.9542 17.2177ZM23.3334 22.1667H28C28.3095 22.1667 28.6062 22.2896 28.825 22.5084C29.0438 22.7272 29.1667 23.0239 29.1667 23.3333C29.1667 23.6428 29.0438 23.9395 28.825 24.1583C28.6062 24.3771 28.3095 24.5 28 24.5H23.3334C23.024 24.5 22.7272 24.3771 22.5084 24.1583C22.2896 23.9395 22.1667 23.6428 22.1667 23.3333C22.1667 23.0239 22.2896 22.7272 22.5084 22.5084C22.7272 22.2896 23.024 22.1667 23.3334 22.1667ZM32.6667 33.8333H23.3334C23.024 33.8333 22.7272 33.7104 22.5084 33.4916C22.2896 33.2728 22.1667 32.9761 22.1667 32.6667C22.1667 32.3572 22.2896 32.0605 22.5084 31.8417C22.7272 31.6229 23.024 31.5 23.3334 31.5H32.6667C32.9761 31.5 33.2729 31.6229 33.4917 31.8417C33.7105 32.0605 33.8334 32.3572 33.8334 32.6667C33.8334 32.9761 33.7105 33.2728 33.4917 33.4916C33.2729 33.7104 32.9761 33.8333 32.6667 33.8333ZM32.6667 29.1667H23.3334C23.024 29.1667 22.7272 29.0438 22.5084 28.825C22.2896 28.6062 22.1667 28.3094 22.1667 28C22.1667 27.6906 22.2896 27.3938 22.5084 27.175C22.7272 26.9563 23.024 26.8333 23.3334 26.8333H32.6667C32.9761 26.8333 33.2729 26.9563 33.4917 27.175C33.7105 27.3938 33.8334 27.6906 33.8334 28C33.8334 28.3094 33.7105 28.6062 33.4917 28.825C33.2729 29.0438 32.9761 29.1667 32.6667 29.1667Z" fill="#243447"/>
</svg>
