<svg width="56" height="56" viewBox="0 0 56 56" fill="none" xmlns="http://www.w3.org/2000/svg">
<path d="M42 28C42 25.2311 41.1789 22.5243 39.6406 20.222C38.1022 17.9197 35.9157 16.1253 33.3576 15.0657C30.7994 14.0061 27.9845 13.7288 25.2687 14.269C22.553 14.8092 20.0584 16.1426 18.1005 18.1005C16.1426 20.0584 14.8092 22.553 14.269 25.2687C13.7288 27.9845 14.0061 30.7994 15.0657 33.3576C16.1253 35.9157 17.9197 38.1022 20.222 39.6406C22.5243 41.1789 25.2311 42 28 42C31.7118 41.996 35.2704 40.5197 37.8951 37.8951C40.5197 35.2704 41.996 31.7118 42 28ZM23.3333 28C23.3325 27.146 23.6446 26.3213 24.2107 25.6818C24.5502 25.3003 24.8803 24.9387 25.1172 24.7018L28.4118 21.35C28.6314 21.1437 28.9223 21.0304 29.2235 21.0337C29.5247 21.037 29.813 21.1567 30.028 21.3678C30.243 21.5788 30.368 21.8649 30.3768 22.166C30.3857 22.4671 30.2777 22.76 30.0755 22.9833L26.775 26.3433C26.5568 26.5627 26.2605 26.8893 25.9583 27.2288C25.7703 27.442 25.6666 27.7164 25.6666 28.0006C25.6666 28.2848 25.7703 28.5592 25.9583 28.7723C26.2593 29.1107 26.5557 29.4373 26.7668 29.6497L30.0755 33.0167C30.2777 33.24 30.3857 33.5329 30.3768 33.834C30.368 34.1351 30.243 34.4212 30.028 34.6322C29.813 34.8433 29.5247 34.963 29.2235 34.9663C28.9223 34.9696 28.6314 34.8563 28.4118 34.65L25.1113 31.2923C24.878 31.059 24.5513 30.7008 24.2142 30.3205C23.646 29.6812 23.3325 28.8553 23.3333 28Z" fill="#243447"/>
</svg>
