<svg width="56" height="56" viewBox="0 0 56 56" fill="none" xmlns="http://www.w3.org/2000/svg">
<path d="M41.9463 20.4657L32.1253 30.2867C31.0303 31.379 29.5467 31.9924 28 31.9924C26.4533 31.9924 24.9697 31.379 23.8747 30.2867L14.0537 20.4657C14.0373 20.65 14 20.8168 14 21V35C14.0019 36.5465 14.617 38.0292 15.7106 39.1227C16.8042 40.2163 18.2868 40.8315 19.8333 40.8333H36.1667C37.7132 40.8315 39.1959 40.2163 40.2894 39.1227C41.383 38.0292 41.9981 36.5465 42 35V21C42 20.8168 41.9627 20.65 41.9463 20.4657Z" fill="#243447"/>
<path d="M30.4757 28.637L41.132 17.9795C40.6158 17.1235 39.8877 16.415 39.018 15.9224C38.1483 15.4297 37.1663 15.1694 36.1667 15.1667H19.8333C18.8338 15.1694 17.8518 15.4297 16.982 15.9224C16.1123 16.415 15.3842 17.1235 14.868 17.9795L25.5243 28.637C26.1818 29.2919 27.072 29.6595 28 29.6595C28.928 29.6595 29.8182 29.2919 30.4757 28.637Z" fill="#243447"/>
</svg>
