<svg width="56" height="56" viewBox="0 0 56 56" fill="none" xmlns="http://www.w3.org/2000/svg">
<path d="M40.8333 26.8333C40.5239 26.8333 40.2271 26.7104 40.0084 26.4916C39.7896 26.2728 39.6666 25.9761 39.6666 25.6667C39.6642 23.1921 38.68 20.8195 36.9302 19.0697C35.1804 17.3199 32.8079 16.3358 30.3333 16.3333C30.0239 16.3333 29.7271 16.2104 29.5084 15.9916C29.2896 15.7728 29.1666 15.4761 29.1666 15.1667C29.1666 14.8572 29.2896 14.5605 29.5084 14.3417C29.7271 14.1229 30.0239 14 30.3333 14C33.4265 14.0034 36.392 15.2337 38.5791 17.4208C40.7663 19.608 41.9966 22.5735 42 25.6667C42 25.9761 41.8771 26.2728 41.6583 26.4916C41.4395 26.7104 41.1427 26.8333 40.8333 26.8333ZM37.3333 25.6667C37.3333 23.8102 36.5958 22.0297 35.2831 20.7169C33.9703 19.4042 32.1898 18.6667 30.3333 18.6667C30.0239 18.6667 29.7271 18.7896 29.5084 19.0084C29.2896 19.2272 29.1666 19.5239 29.1666 19.8333C29.1666 20.1428 29.2896 20.4395 29.5084 20.6583C29.7271 20.8771 30.0239 21 30.3333 21C31.571 21 32.758 21.4917 33.6331 22.3668C34.5083 23.242 35 24.429 35 25.6667C35 25.9761 35.1229 26.2728 35.3417 26.4916C35.5605 26.7104 35.8572 26.8333 36.1666 26.8333C36.4761 26.8333 36.7728 26.7104 36.9916 26.4916C37.2104 26.2728 37.3333 25.9761 37.3333 25.6667ZM39.8801 39.858L40.9418 38.6342C41.6176 37.9563 41.997 37.0381 41.997 36.0809C41.997 35.1237 41.6176 34.2056 40.9418 33.5277C40.9056 33.4915 38.0986 31.332 38.0986 31.332C37.425 30.6907 36.5301 30.3336 35.6 30.3349C34.6699 30.3362 33.776 30.6958 33.1041 31.339L30.8805 33.2127C29.0654 32.4614 27.4165 31.359 26.0286 29.9688C24.6408 28.5785 23.5412 26.9278 22.7931 25.1113L24.6598 22.8947C25.3035 22.2229 25.6635 21.3289 25.665 20.3985C25.6665 19.4681 25.3094 18.5729 24.668 17.899C24.668 17.899 22.5061 15.0955 22.47 15.0593C21.8043 14.3894 20.9018 14.0082 19.9575 13.9982C19.0131 13.9881 18.1027 14.35 17.423 15.0057L16.0813 16.1723C8.15498 25.368 25.2233 42.3045 34.7223 42C35.6815 42.0056 36.6321 41.8189 37.518 41.451C38.4039 41.0831 39.2071 40.5414 39.8801 39.858Z" fill="#243447"/>
</svg>
