<svg width="36" height="35" viewBox="0 0 36 35" fill="none" xmlns="http://www.w3.org/2000/svg">
<g clip-path="url(#clip0_210_4259)">
<path d="M28.0459 12.0699L22.4209 6.60117C22.3164 6.49963 22.1923 6.41912 22.0557 6.36423C21.9191 6.30933 21.7728 6.28114 21.625 6.28125H10.375C9.77826 6.28125 9.20597 6.51172 8.78401 6.92195C8.36205 7.33219 8.125 7.88859 8.125 8.46875V10.6563H5.875C5.27826 10.6563 4.70597 10.8867 4.28401 11.297C3.86205 11.7072 3.625 12.2636 3.625 12.8438V32.5312C3.625 33.1114 3.86205 33.6678 4.28401 34.078C4.70597 34.4883 5.27826 34.7188 5.875 34.7188H21.625C22.2217 34.7188 22.794 34.4883 23.216 34.078C23.6379 33.6678 23.875 33.1114 23.875 32.5312V30.3438H26.125C26.7217 30.3438 27.294 30.1133 27.716 29.703C28.1379 29.2928 28.375 28.7364 28.375 28.1562V12.8438C28.3751 12.7001 28.3461 12.5578 28.2897 12.425C28.2332 12.2922 28.1504 12.1716 28.0459 12.0699ZM17.125 29.25H10.375C10.0766 29.25 9.79048 29.1348 9.5795 28.9296C9.36853 28.7245 9.25 28.4463 9.25 28.1562C9.25 27.8662 9.36853 27.588 9.5795 27.3829C9.79048 27.1777 10.0766 27.0625 10.375 27.0625H17.125C17.4234 27.0625 17.7095 27.1777 17.9205 27.3829C18.1315 27.588 18.25 27.8662 18.25 28.1562C18.25 28.4463 18.1315 28.7245 17.9205 28.9296C17.7095 29.1348 17.4234 29.25 17.125 29.25ZM17.125 24.875H10.375C10.0766 24.875 9.79048 24.7598 9.5795 24.5546C9.36853 24.3495 9.25 24.0713 9.25 23.7812C9.25 23.4912 9.36853 23.213 9.5795 23.0079C9.79048 22.8027 10.0766 22.6875 10.375 22.6875H17.125C17.4234 22.6875 17.7095 22.8027 17.9205 23.0079C18.1315 23.213 18.25 23.4912 18.25 23.7812C18.25 24.0713 18.1315 24.3495 17.9205 24.5546C17.7095 24.7598 17.4234 24.875 17.125 24.875ZM26.125 28.1562H23.875V17.2188C23.8751 17.0751 23.8461 16.9328 23.7897 16.8C23.7332 16.6672 23.6504 16.5466 23.5459 16.4449L17.9209 10.9762C17.8164 10.8746 17.6923 10.7941 17.5557 10.7392C17.4191 10.6843 17.2728 10.6561 17.125 10.6563H10.375V8.46875H21.1595L26.125 13.2963V28.1562Z" fill="#351745"/>
<path d="M32.2944 0.505737V4.35144H36.2505V6.13367H32.2944V9.97937H30.4761V6.13367H26.52V4.35144H30.4761V0.505737H32.2944Z" fill="#351745" stroke="#351745" stroke-width="0.5"/>
</g>
<defs>
<clipPath id="clip0_210_4259">
<rect width="36" height="35" fill="white"/>
</clipPath>
</defs>
</svg>
