<svg width="17" height="15" viewBox="0 0 17 15" fill="none" xmlns="http://www.w3.org/2000/svg">
<path d="M8.50033 6.78978V11.0398M6.37533 8.91477H10.6253M15.5837 12.4564C15.5837 12.8322 15.4344 13.1925 15.1687 13.4582C14.9031 13.7239 14.5427 13.8731 14.167 13.8731H2.83366C2.45794 13.8731 2.0976 13.7239 1.83192 13.4582C1.56625 13.1925 1.41699 12.8322 1.41699 12.4564V2.53977C1.41699 2.16405 1.56625 1.80372 1.83192 1.53804C2.0976 1.27236 2.45794 1.12311 2.83366 1.12311H6.37533L7.79199 3.24811H14.167C14.5427 3.24811 14.9031 3.39736 15.1687 3.66304C15.4344 3.92872 15.5837 4.28905 15.5837 4.66477V12.4564Z" stroke="#303030" stroke-linecap="round" stroke-linejoin="round"/>
</svg>
