<svg width="12" height="11" viewBox="0 0 12 11" fill="none" xmlns="http://www.w3.org/2000/svg">
<path d="M6.00016 7.13855C5.93905 7.13855 5.88176 7.12908 5.82829 7.11014C5.77482 7.09119 5.72516 7.05865 5.67933 7.01251L4.02933 5.36251C3.93766 5.27085 3.89366 5.1639 3.89733 5.04168C3.901 4.91946 3.945 4.81251 4.02933 4.72085C4.121 4.62918 4.22993 4.58151 4.35612 4.57785C4.48232 4.57418 4.59109 4.61803 4.68245 4.70939L5.54183 5.56876V2.29168C5.54183 2.16182 5.58583 2.05304 5.67383 1.96535C5.76183 1.87765 5.87061 1.83365 6.00016 1.83335C6.12972 1.83304 6.23865 1.87704 6.32695 1.96535C6.41526 2.05365 6.45911 2.16243 6.4585 2.29168V5.56876L7.31787 4.70939C7.40954 4.61772 7.51847 4.57372 7.64466 4.57739C7.77086 4.58105 7.87963 4.62887 7.971 4.72085C8.05502 4.81251 8.09902 4.91946 8.103 5.04168C8.10697 5.1639 8.06297 5.27085 7.971 5.36251L6.321 7.01251C6.27516 7.05835 6.22551 7.09089 6.17204 7.11014C6.11857 7.12939 6.06127 7.13886 6.00016 7.13855ZM3.25016 9.16668C2.99808 9.16668 2.78236 9.077 2.603 8.89764C2.42363 8.71828 2.3338 8.5024 2.3335 8.25001V7.33335C2.3335 7.20348 2.3775 7.09471 2.4655 7.00701C2.5535 6.91932 2.66227 6.87532 2.79183 6.87501C2.92138 6.87471 3.03032 6.91871 3.11862 7.00701C3.20693 7.09532 3.25077 7.2041 3.25016 7.33335V8.25001H8.75016V7.33335C8.75016 7.20348 8.79416 7.09471 8.88216 7.00701C8.97016 6.91932 9.07894 6.87532 9.2085 6.87501C9.33805 6.87471 9.44698 6.91871 9.53529 7.00701C9.62359 7.09532 9.66744 7.2041 9.66683 7.33335V8.25001C9.66683 8.5021 9.57715 8.71797 9.39779 8.89764C9.21843 9.0773 9.00255 9.16698 8.75016 9.16668H3.25016Z" fill="#351745"/>
</svg>
