<svg width="10" height="10" viewBox="0 0 10 10" fill="none" xmlns="http://www.w3.org/2000/svg">
<path d="M2.2085 3.20831H1.75016C1.50705 3.20831 1.27389 3.30489 1.10198 3.4768C0.930073 3.64871 0.833496 3.88186 0.833496 4.12498V8.24998C0.833496 8.4931 0.930073 8.72625 1.10198 8.89816C1.27389 9.07007 1.50705 9.16665 1.75016 9.16665H5.87516C6.11828 9.16665 6.35144 9.07007 6.52334 8.89816C6.69525 8.72625 6.79183 8.4931 6.79183 8.24998V7.79165" stroke="#351745" stroke-linecap="round" stroke-linejoin="round"/>
<path d="M6.33333 2.29165L7.70833 3.66665M8.34313 3.01811C8.52364 2.8376 8.62505 2.59277 8.62505 2.33749C8.62505 2.0822 8.52364 1.83738 8.34313 1.65686C8.16261 1.47635 7.91778 1.37494 7.6625 1.37494C7.40722 1.37494 7.16239 1.47635 6.98188 1.65686L3.125 5.49999V6.87499H4.5L8.34313 3.01811Z" stroke="#351745" stroke-linecap="round" stroke-linejoin="round"/>
</svg>
