<svg width="94" height="45" viewBox="0 0 94 45" fill="none" xmlns="http://www.w3.org/2000/svg">
<path d="M89.718 2.96469C88.9584 3.21246 88.3615 3.66889 88.0495 4.26225C87.8664 4.60783 87.7172 5.25336 87.7172 5.72283C87.7172 6.95519 88.2395 7.85501 89.25 8.331C90.8506 9.09389 92.7292 8.29187 93.1836 6.63569C93.2922 6.24446 93.3057 5.31856 93.204 4.90777C93.0209 4.14488 92.4105 3.42112 91.6712 3.09509C91.3592 2.95817 91.1626 2.91904 90.6403 2.89948C90.2198 2.88644 89.8943 2.91252 89.718 2.96469ZM91.1761 4.00143C91.5288 4.17749 91.8815 4.59479 92.0035 4.98602C92.051 5.13599 92.0849 5.49461 92.0849 5.78151C92.0849 6.21186 92.0442 6.37487 91.8882 6.71393C91.6916 7.13124 91.3728 7.46378 91.0473 7.58115C90.4911 7.7898 89.684 7.56159 89.3449 7.10516C88.9312 6.56396 88.7956 5.60546 89.033 4.92081C89.3449 4.01447 90.3351 3.59717 91.1761 4.00143Z" fill="#47096A"/>
<path d="M77.6119 5.70983V8.49405L78.2019 8.47449L78.7852 8.45493L78.7716 7.55511L78.7581 6.66181H79.5651C80.596 6.66181 80.9758 6.55748 81.4167 6.15974C81.8372 5.78155 81.9864 5.40989 81.9796 4.79045C81.966 3.96235 81.5184 3.32987 80.7656 3.09514C80.5146 3.02341 80.0535 2.98429 79.0226 2.96473L77.6119 2.93213V5.70983ZM80.3247 4.0406C80.9216 4.32098 80.9487 5.24036 80.379 5.64462C80.2162 5.75547 80.0806 5.77503 79.4973 5.77503L78.7988 5.78155L78.7784 4.84913L78.7581 3.92323H79.4227C79.9178 3.92323 80.1484 3.94931 80.3247 4.0406Z" fill="#47096A"/>
<path d="M82.6984 5.70985V8.48755H83.2749H83.8514V7.52253C83.8514 6.98785 83.865 6.53794 83.8785 6.5249C83.8921 6.51186 84.143 6.51186 84.4279 6.53142L84.9501 6.56402L85.4588 7.52253L85.9606 8.48755H86.6389C87.0051 8.48755 87.3103 8.48103 87.3103 8.46799C87.3103 8.45495 87.0526 7.97896 86.7338 7.41168C86.415 6.83788 86.1573 6.35537 86.1573 6.33581C86.1573 6.30973 86.2591 6.21844 86.3879 6.13367C86.8898 5.78809 87.1068 5.33818 87.1068 4.64702C87.1068 3.87761 86.6931 3.31685 85.9606 3.08863C85.7368 3.01691 85.235 2.98431 84.1769 2.95823L82.6984 2.93214V5.70985ZM85.6894 4.17103C85.8521 4.34708 85.886 4.43836 85.886 4.73178C85.886 5.39035 85.5266 5.61856 84.4957 5.61856H83.8514V4.76438V3.91021L84.672 3.93629L85.4927 3.95585L85.6894 4.17103Z" fill="#47096A"/>
<path d="M32.2833 0.473705C31.8939 0.741084 31.2042 1.07263 30.6702 1.24376C29.8136 1.52183 29.6468 1.53253 27.8112 1.53253C26.5319 1.52183 25.1747 1.44696 23.862 1.28654C20.4023 0.890816 19.6793 0.826645 17.7992 0.826645C14.9625 0.81595 12.8488 1.24376 10.7352 2.23841C8.15431 3.45765 6.57464 5.17957 5.8738 7.53251C5.58456 8.51646 5.52894 10.4309 5.76256 11.1796C6.18528 12.5592 7.40897 13.233 9.05539 12.9977C9.556 12.9229 9.556 12.9122 9.35576 12.709C8.93303 12.2705 8.73279 11.2758 8.73279 9.56459C8.73279 8.07796 8.75503 7.89615 9.04427 7.07262C9.76736 5.06193 11.0244 3.94963 13.1714 3.41487C13.672 3.29723 14.4174 3.20097 14.8735 3.20097H15.6967L15.4075 3.65017C14.9069 4.42022 14.1726 5.98171 13.8167 7.05123C13.4607 8.09935 13.3383 8.50577 11.9478 13.5218C10.2012 19.8106 9.75624 21.2223 8.86628 23.233C7.67596 25.9496 6.56352 27.0512 4.63898 27.4041C4.01602 27.5111 4.00489 27.5218 4.27188 27.6608C4.69461 27.8747 6.09629 28.0351 6.84163 27.9496C7.8317 27.8426 8.77728 27.5325 9.52262 27.0726C10.8242 26.2597 12.326 24.4095 13.2493 22.4843C13.8834 21.1795 14.9069 18.1528 15.6856 15.3186L15.8079 14.8587L18.2108 14.8373L20.6248 14.8052L20.8807 13.8427C21.0142 13.3079 21.1366 12.8266 21.1366 12.7731C21.1366 12.709 20.2911 12.6769 18.7448 12.6983C17.4321 12.709 16.353 12.6983 16.353 12.6555C16.353 12.5271 17.4432 8.64481 17.9216 7.05123C18.1663 6.25979 18.5446 5.24375 18.7782 4.80524C19.1564 4.05658 19.212 4.00311 19.5791 3.97102C19.9685 3.92824 25.7198 4.79455 25.9423 4.92289C26.0202 4.96567 25.9312 5.37209 25.6642 6.15283C25.1636 7.61807 24.8966 8.49507 23.317 14.0031C21.1699 21.479 20.9586 22.3774 21.0587 23.4255C21.2033 24.9977 22.3714 25.8426 24.2848 25.7571C25.4195 25.6929 26.543 25.1688 27.4108 24.2597C27.9225 23.7357 28.0337 23.5432 28.0337 23.2437V22.8694L27.6777 23.1261C27.0659 23.5646 26.6209 23.7357 26.1092 23.7357C25.464 23.7357 25.2304 23.4897 25.1636 22.7089C25.0969 21.971 25.019 22.3025 27.1994 14.4844C29.6913 5.54321 30.1807 4.25979 32.2276 1.34001C32.9174 0.356058 33.151 -0.0396629 33.0175 0.00311775C32.9952 0.00311775 32.6726 0.217021 32.2833 0.473705Z" fill="#47096A"/>
<path d="M36.9888 10.1101C34.8307 10.6342 32.9729 11.9711 31.4266 14.0994C30.8704 14.8695 30.0138 16.5165 29.7134 17.3722C29.4019 18.2919 29.1572 19.5326 29.0793 20.57C28.779 24.463 31.6713 26.7732 35.6984 25.8641C35.9765 25.7999 36.6773 25.5326 37.2447 25.2652C38.0568 24.9015 38.4795 24.6128 39.1692 23.9711C41.0493 22.2491 42.1617 20.3882 42.9293 17.6502L43.2185 16.6556L44.1418 16.3989C44.6536 16.2599 45.3099 16.0246 45.6103 15.8748C45.9218 15.7251 46.1665 15.6181 46.1665 15.6395C46.1665 15.6609 46.0441 16.078 45.8884 16.5807C45.7326 17.0727 45.321 18.5165 44.9873 19.7786C44.4756 21.6609 44.3643 22.2598 44.3532 23.0406C44.331 23.8641 44.3755 24.078 44.598 24.5165C45.0763 25.4684 45.9996 25.9069 47.5014 25.9069C48.9587 25.9176 50.2158 25.3294 51.7844 23.9283L52.6966 23.1048L52.8301 23.6823C53.1082 24.8802 53.9314 25.5967 55.3442 25.8748C56.134 26.0352 56.9572 25.9604 58.014 25.6609C61.0065 24.7839 64.0101 21.308 65.4563 17.0513C66.057 15.2652 66.2461 14.2385 66.2461 12.7732C66.2461 11.3722 66.1238 10.9978 65.5008 10.5486C65.1559 10.3027 63.9323 10.185 62.9422 10.3027C62.0634 10.4096 61.9966 10.4738 62.3415 10.9658C62.8866 11.7679 62.9978 12.2385 62.9978 13.6823C62.9756 17.5219 60.784 22.324 58.5591 23.3721C58.014 23.6288 57.9028 23.6502 57.5246 23.5433C56.9906 23.3828 56.846 23.0834 56.846 22.1529C56.846 20.9871 58.1587 16.3347 59.4602 12.8802C59.6716 12.3026 59.8496 11.6823 59.8496 11.4898C59.8496 11.0299 59.4936 10.6128 58.9819 10.4738C58.2032 10.2706 55.9671 10.3775 55.9004 10.6235C55.8893 10.6877 55.8114 11.0406 55.7447 11.4043C55.5222 12.5593 53.5198 19.1476 53.186 19.8427C52.7299 20.7732 52.0958 21.6395 51.2838 22.4203C50.5273 23.1582 49.8487 23.5219 49.2702 23.5219C48.0354 23.5219 48.1133 22.4737 49.7152 17.3722C50.0823 16.1957 50.6385 14.5486 50.95 13.7037C51.2504 12.8588 51.5062 12.0674 51.5062 11.939C51.5062 11.8107 51.4061 11.5112 51.2949 11.2652C50.9834 10.6021 50.3938 10.3668 49.0477 10.3668C48.4693 10.3668 47.8129 10.3989 47.5793 10.4417C47.1788 10.4952 47.1566 10.5273 47.2456 10.7839C47.2901 10.9337 47.3346 11.3294 47.3234 11.6502C47.3123 12.7198 46.5892 13.693 45.2209 14.4845C44.598 14.8374 43.5189 15.2331 43.4076 15.1369C43.3854 15.1155 43.2741 14.6663 43.1518 14.1422C42.729 12.2599 41.8613 11.062 40.493 10.4417C39.8367 10.1422 39.6587 10.1101 38.4906 10.0888C37.7898 10.0674 37.1112 10.0781 36.9888 10.1101ZM38.6575 11.9283C39.058 12.0781 39.1692 12.5486 39.0913 13.8748C39.0246 15.1155 39.0246 15.1369 39.3583 15.7572L39.6921 16.3775L39.4918 17.308C39.2248 18.5486 38.8021 19.7251 38.1458 21.0085C37.2447 22.7839 36.2657 23.7786 35.131 24.0673C34.6972 24.185 34.5748 24.1743 34.1966 23.9925C33.3178 23.5753 32.984 22.7304 33.073 21.062C33.1954 18.57 34.7083 14.6556 36.1879 12.9871C36.9999 12.0781 37.9455 11.6716 38.6575 11.9283Z" fill="#47096A"/>
<path d="M69.4389 10.4416C69.2275 10.4844 69.183 10.5379 69.2497 10.7197C69.4722 11.4363 69.4166 11.7464 68.6935 14.217C66.591 21.4042 66.3574 22.3881 66.4464 23.5539C66.4798 24.0993 66.5688 24.3881 66.8135 24.7731C67.5366 25.8854 69.2052 26.2812 70.8294 25.7357C71.8417 25.4042 73.3435 24.4523 74.0666 23.6822C74.3781 23.3614 74.6562 23.094 74.6896 23.094C74.7564 23.094 74.1111 24.9122 73.6439 26.0352C73.0988 27.3507 72.1199 29.1261 71.2966 30.3132C67.7257 35.4362 61.8742 38.3988 55.3442 38.4095C51.5507 38.4202 48.447 37.725 45.1653 36.1421C43.5856 35.372 42.3842 34.602 40.0703 32.9015C37.3448 30.8694 36.4103 30.2811 34.5859 29.4148C32.2498 28.2918 29.7023 27.5646 26.7543 27.1475C25.475 26.9656 21.2143 26.9656 19.8015 27.1368C18.0105 27.3614 15.9191 27.864 13.2715 28.6983C10.5905 29.5432 10.19 29.6501 8.67708 29.8961C6.36319 30.2598 4.17167 29.9068 1.83554 28.7945C1.41281 28.5806 0.82321 28.2491 0.522849 28.0566C0.233614 27.8533 0 27.725 0 27.7785C0 27.9817 1.06795 29.1261 1.74654 29.6501C3.83794 31.2544 5.78472 31.9603 8.42121 32.0458C10.546 32.1207 11.6807 31.9389 15.463 30.9015C18.5 30.0779 20.1353 29.8106 22.5826 29.7571C26.098 29.6715 28.7456 30.1528 31.8716 31.4576C33.5625 32.1528 36.1434 33.6608 38.1013 35.0833C40.3595 36.7196 42.9182 38.2063 44.9428 39.0619C51.7399 41.9282 59.3045 41.8212 65.8012 38.7731C71.6749 36.0031 75.7242 31.3507 78.1159 24.602C78.7278 22.8694 80.3075 17.3186 81.6535 12.1849C81.8426 11.447 82.0317 10.7625 82.054 10.6555C82.1096 10.4844 81.965 10.4737 80.0738 10.4737H78.0269L76.9367 14.6876C76.336 16.9978 75.7353 19.1689 75.5907 19.5111C75.0567 20.7625 73.7329 22.3026 72.5092 23.094C71.9864 23.4256 71.7305 23.5218 71.3634 23.5218C70.2398 23.5218 70.2287 22.6769 71.3411 19.0298C72.5982 14.9015 73.299 12.5272 73.3658 12.1635C73.477 11.6074 73.2546 11.0619 72.7762 10.709C72.398 10.4309 72.3201 10.4202 71.0408 10.3988C70.2954 10.3882 69.5724 10.4095 69.4389 10.4416Z" fill="#47096A"/>
<path d="M68.916 28.2812C68.1929 29.201 65.8456 30.8587 64.0768 31.7037C58.8817 34.1956 52.9301 34.5272 46.4001 32.6662C44.4867 32.1208 42.3953 31.3079 39.7254 30.0673C39.4473 29.939 39.2137 29.8534 39.1914 29.8748C39.1136 29.939 40.8156 31.4256 41.7167 32.0673C44.4755 34.0352 47.5236 35.3828 50.7275 36.0566C51.7621 36.2705 52.1959 36.3026 54.5098 36.2919C56.7792 36.2919 57.2687 36.2598 58.2476 36.0566C60.5838 35.5753 62.4527 34.8159 64.355 33.5967C65.6788 32.7518 67.4587 31.094 68.2596 29.939C68.8047 29.1689 69.3721 28.0459 69.272 27.9497C69.2497 27.9176 69.0828 28.078 68.916 28.2812Z" fill="#47096A"/>
<path d="M21.1254 31.9175C20.5469 31.9924 18.6892 32.3667 17.0094 32.7517C13.4718 33.5646 12.4483 33.7464 10.6239 33.8961C8.71053 34.0672 6.53014 33.8533 4.81697 33.3507C3.93814 33.0833 2.36959 32.3988 1.88011 32.0672C1.37951 31.7357 1.36839 31.8961 1.83562 32.4416C2.44746 33.1688 4.12725 34.3453 5.39544 34.9442C7.66483 36.0245 9.55599 36.4523 12.5262 36.5378C14.8512 36.602 15.9414 36.5057 18.9117 35.9603C22.2379 35.3507 22.5716 35.2972 24.0178 35.1688C25.8644 34.9977 28.6567 35.1047 30.0361 35.3934C32.1831 35.8426 34.7084 36.7838 37.267 38.11C38.0346 38.5057 39.1359 39.0298 39.7144 39.2865C40.7823 39.7571 42.3843 40.3453 42.3843 40.2704C42.3843 40.2383 41.8058 39.864 41.1049 39.4148C40.4041 38.9656 39.1582 38.1421 38.3461 37.5646C35.1756 35.34 33.785 34.4737 31.9606 33.586C30.0917 32.6876 28.2562 32.1207 26.4207 31.864C25.3527 31.725 22.4159 31.7464 21.1254 31.9175Z" fill="#47096A"/>
<path d="M25.3638 36.9015C24.8521 36.955 23.8954 37.1154 23.2502 37.2651C22.6049 37.4042 21.537 37.6395 20.8584 37.7892C20.1909 37.9389 19.1897 38.1207 18.6335 38.1849C18.0884 38.2491 17.4098 38.3239 17.1317 38.356L16.6311 38.4095L17.0205 38.602C17.8437 38.9977 18.8894 39.1689 20.6359 39.1582C21.5592 39.1582 22.7607 39.1047 23.3058 39.0405C24.7075 38.8801 27.3551 38.8908 28.4898 39.0726C30.4699 39.3828 31.9272 39.9068 35.9209 41.7571C40.7934 44.0031 43.0294 44.5913 46.7339 44.5913C49.3704 44.5913 51.5508 44.1421 53.5087 43.2009C54.3986 42.7731 55.0884 42.2918 54.6767 42.3881C53.2306 42.7304 52.3072 42.8159 50.0045 42.8159C47.4014 42.8159 46.4446 42.7197 44.2754 42.1849C42.0839 41.6608 40.5153 41.0619 36.6329 39.3186C33.5625 37.9282 32.0274 37.4042 29.9026 37.0512C28.7456 36.848 26.5986 36.7838 25.3638 36.9015Z" fill="#47096A"/>
</svg>
