<svg width="29" height="28" viewBox="0 0 29 28" fill="none" xmlns="http://www.w3.org/2000/svg">
<g clip-path="url(#clip0_21_617)">
<path d="M19.2519 4.85025H21.5648C22.1782 4.85025 22.7665 5.09393 23.2002 5.52768C23.634 5.96143 23.8777 6.54972 23.8777 7.16314V23.3534C23.8777 23.9668 23.634 24.5551 23.2002 24.9889C22.7665 25.4226 22.1782 25.6663 21.5648 25.6663H7.68741C7.07399 25.6663 6.48569 25.4226 6.05194 24.9889C5.61819 24.5551 5.37451 23.9668 5.37451 23.3534V7.16314C5.37451 6.54972 5.61819 5.96143 6.05194 5.52768C6.48569 5.09393 7.07399 4.85025 7.68741 4.85025H10.0003M11.1567 2.53735H18.0954C18.7341 2.53735 19.2519 3.05511 19.2519 3.6938V6.0067C19.2519 6.64538 18.7341 7.16314 18.0954 7.16314H11.1567C10.5181 7.16314 10.0003 6.64538 10.0003 6.0067V3.6938C10.0003 3.05511 10.5181 2.53735 11.1567 2.53735Z" stroke="white" stroke-width="4" stroke-linecap="round" stroke-linejoin="round"/>
</g>
<defs>
<clipPath id="clip0_21_617">
<rect width="27.7547" height="27.7547" fill="white" transform="translate(0.748535 0.224487)"/>
</clipPath>
</defs>
</svg>
