<svg width="10" height="17" viewBox="0 0 10 17" fill="none" xmlns="http://www.w3.org/2000/svg">
<path d="M0.522529 7.85358L0.466018 7.91496H0.409508L0.183464 8.16047V8.40599L0.126953 8.46736V8.83564L0.183464 8.89702V9.57218L0.239975 9.63356V9.94046L0.296486 10.0018V10.186L0.352997 10.2474V10.3701L0.409508 10.4315V10.5542L0.466018 10.6156V10.7384L0.522529 10.7998V10.8611L0.57904 10.9225V10.9839L0.635551 11.0453V11.1067L0.692062 11.168V11.2294L0.748573 11.2908V11.3522L0.861595 11.4749V11.5363L0.918106 11.5977V11.6591L1.08764 11.8432V11.9046L1.4267 12.2729V12.3342L1.48321 12.3956H1.53973L1.87879 12.7639H1.9353L2.10483 12.948H2.16135L2.27437 13.0708H2.33088L2.38739 13.1322H2.4439L2.50041 13.1935H2.55692L2.61343 13.2549H2.66994L2.72645 13.3163H2.78296L2.83948 13.3777H2.89599L2.9525 13.4391H3.06552L3.12203 13.5004H3.17854L3.23505 13.5618H3.40458L3.4611 13.6232H3.57412L3.63063 13.6846H3.85667L3.91318 13.7459H4.08272L4.13923 13.8073V15.1577L4.08272 15.219H3.12203L3.06552 15.2804H3.00901L2.78296 15.5259V16.017L2.83948 16.0783V16.1397L2.9525 16.2625H3.00901L3.06552 16.3239H6.28664L6.34315 16.2625H6.39966L6.51268 16.1397V16.0783L6.56919 16.017V15.5259L6.34315 15.2804H6.28664L6.23013 15.219H5.26944L5.21293 15.1577V13.8073L5.26944 13.7459H5.43898L5.49549 13.6846H5.72153L5.77804 13.6232H5.89106L5.94757 13.5618H6.11711L6.17362 13.5004H6.23013L6.28664 13.4391H6.39966L6.45617 13.3777H6.51268L6.56919 13.3163H6.62571L6.68222 13.2549H6.73873L6.79524 13.1935H6.85175L6.90826 13.1322H6.96477L7.02128 13.0708H7.07779L7.19081 12.948H7.24732L7.41686 12.7639H7.47337L7.81243 12.3956H7.86894L7.92546 12.3342V12.2729L8.26452 11.9046V11.8432L8.43405 11.6591V11.5977L8.49056 11.5363V11.4749L8.60359 11.3522V11.2908L8.6601 11.2294V11.168L8.71661 11.1067V11.0453L8.77312 10.9839V10.9225L8.82963 10.8611V10.7998L8.88614 10.7384V10.6156L8.94265 10.5542V10.4315L8.99916 10.3701V10.2474L9.05567 10.186V10.0018L9.11218 9.94046V9.63356L9.1687 9.57218V8.89702L9.22521 8.83564V8.46736L9.1687 8.40599V8.16047L8.94265 7.91496H8.88614L8.82963 7.85358H8.49056L8.43405 7.91496H8.37754L8.20801 8.09909V8.16047L8.1515 8.22185V9.26529L8.09499 9.32667V9.63356L8.03848 9.69494V9.87908L7.98197 9.94046V10.0632L7.92546 10.1246V10.2474L7.86894 10.3087V10.3701L7.81243 10.4315V10.4929L7.75592 10.5542V10.6156L7.69941 10.677V10.7384L7.58639 10.8611V10.9225L7.47337 11.0453V11.1067L7.24732 11.3522V11.4135L7.02128 11.6591H6.96477L6.68222 11.966H6.62571L6.51268 12.0887H6.45617L6.39966 12.1501H6.34315L6.28664 12.2115H6.23013L6.17362 12.2729H6.11711L6.0606 12.3342H6.00409L5.94757 12.3956H5.83455L5.77804 12.457H5.66502L5.60851 12.5184H5.49549L5.43898 12.5797H5.15642L5.09991 12.6411H4.25225L4.19574 12.5797H3.91318L3.85667 12.5184H3.74365L3.68714 12.457H3.57412L3.51761 12.3956H3.40458L3.34807 12.3342H3.29156L3.23505 12.2729H3.17854L3.12203 12.2115H3.06552L3.00901 12.1501H2.9525L2.89599 12.0887H2.83948L2.72645 11.966H2.66994L2.38739 11.6591H2.33088L2.10483 11.4135V11.3522L1.87879 11.1067V11.0453L1.76577 10.9225V10.8611L1.65275 10.7384V10.677L1.59624 10.6156V10.5542L1.53973 10.4929V10.4315L1.48321 10.3701V10.3087L1.4267 10.2474V10.1246L1.37019 10.0632V9.94046L1.31368 9.87908V9.69494L1.25717 9.63356V9.32667L1.20066 9.26529V8.22185L1.14415 8.16047V8.09909L0.974616 7.91496H0.918106L0.861595 7.85358H0.522529Z" fill="#BF0C0F"/>
<path d="M4.19552 0.672333L4.13901 0.733712H3.96948L3.91297 0.79509H3.79995L3.74344 0.856469H3.63042L3.5739 0.917848H3.51739L3.46088 0.979227H3.40437L3.29135 1.10198H3.23484L3.06531 1.28612H3.0088L2.72624 1.59302V1.65439L2.55671 1.83853V1.89991L2.5002 1.96129V2.02267L2.44369 2.08405V2.14542L2.38718 2.2068V2.26818L2.33067 2.32956V2.39094L2.27415 2.45232V2.57508L2.21764 2.63646V2.82059L2.16113 2.88197V9.26537L2.21764 9.32675V9.57226L2.27415 9.63364V9.7564L2.33067 9.81778V9.87916L2.38718 9.94054V10.0019L2.44369 10.0633V10.1247L2.5002 10.1861V10.2474L2.55671 10.3088V10.3702L2.78275 10.6157V10.6771L2.95229 10.8612H3.0088L3.17833 11.0454H3.23484L3.34786 11.1681H3.40437L3.46088 11.2295H3.51739L3.5739 11.2909H3.63042L3.68693 11.3523H3.74344L3.79995 11.4136H3.91297L3.96948 11.475H4.19552L4.25204 11.5364H5.0997L5.15621 11.475H5.38225L5.43876 11.4136H5.55179L5.6083 11.3523H5.66481L5.72132 11.2909H5.77783L5.83434 11.2295H5.89085L5.94736 11.1681H6.00387L6.06038 11.1067H6.11689L6.34294 10.8612H6.39945L6.62549 10.6157V10.5543L6.79503 10.3702V10.3088L6.85154 10.2474V10.1861L6.90805 10.1247V10.0633L6.96456 10.0019V9.94054L7.02107 9.87916V9.81778L7.07758 9.7564V9.63364L7.13409 9.57226V9.38813L7.1906 9.32675V2.88197L7.13409 2.82059V2.63646L7.07758 2.57508V2.45232L7.02107 2.39094V2.32956L6.96456 2.26818V2.2068L6.90805 2.14542V2.08405L6.85154 2.02267V1.96129L6.79503 1.89991V1.83853L6.62549 1.65439V1.59302L6.34294 1.28612H6.28643L6.11689 1.10198H6.06038L5.94736 0.979227H5.89085L5.83434 0.917848H5.77783L5.72132 0.856469H5.6083L5.55179 0.79509H5.43876L5.38225 0.733712H5.21272L5.15621 0.672333H4.19552Z" fill="#BF0C0F"/>
</svg>
