<svg width="27" height="27" viewBox="0 0 27 27" fill="none" xmlns="http://www.w3.org/2000/svg">
<path d="M4.5 22.5C3.88125 22.5 3.34688 22.2844 2.89688 21.8531C2.46563 21.4031 2.25 20.8688 2.25 20.25V6.75C2.25 6.13125 2.46563 5.60625 2.89688 5.175C3.34688 4.725 3.88125 4.5 4.5 4.5H22.5C23.1187 4.5 23.6438 4.725 24.075 5.175C24.525 5.60625 24.75 6.13125 24.75 6.75V20.25C24.75 20.8688 24.525 21.4031 24.075 21.8531C23.6438 22.2844 23.1187 22.5 22.5 22.5H4.5ZM13.5 14.625L22.5 9V6.75L13.5 12.375L4.5 6.75V9L13.5 14.625Z" fill="#351745"/>
</svg>
