<svg xmlns="http://www.w3.org/2000/svg" viewBox="0 0 320 180">
  <defs>
    <linearGradient id="bgGradient" x1="0%" y1="0%" x2="100%" y2="100%">
      <stop offset="0%" style="stop-color:#d1fae5;stop-opacity:1" />
      <stop offset="100%" style="stop-color:#a7f3d0;stop-opacity:1" />
    </linearGradient>
  </defs>
  
  <!-- Background -->
  <rect width="320" height="180" fill="url(#bgGradient)"/>
  
  <!-- Decorative circles -->
  <circle cx="50" cy="30" r="8" fill="#6ee7b7" opacity="0.5"/>
  <circle cx="280" cy="150" r="12" fill="#6ee7b7" opacity="0.4"/>
  <circle cx="290" cy="40" r="6" fill="#10b981" opacity="0.3"/>
  <circle cx="30" cy="140" r="10" fill="#34d399" opacity="0.4"/>
  
  <!-- Document icon -->
  <g transform="translate(120, 50)">
    <!-- Document shadow -->
    <rect x="5" y="5" width="70" height="85" rx="6" fill="#059669" opacity="0.2"/>
    <!-- Document body -->
    <rect x="0" y="0" width="70" height="85" rx="6" fill="white"/>
    <!-- Folded corner -->
    <path d="M50 0 L70 20 L50 20 Z" fill="#e5e7eb"/>
    <path d="M50 0 L70 20 L70 6 Q70 0 64 0 Z" fill="#f3f4f6"/>
    <!-- Text lines -->
    <rect x="12" y="30" width="46" height="6" rx="3" fill="#d1d5db"/>
    <rect x="12" y="42" width="38" height="6" rx="3" fill="#d1d5db"/>
    <rect x="12" y="54" width="42" height="6" rx="3" fill="#d1d5db"/>
    <rect x="12" y="66" width="30" height="6" rx="3" fill="#d1d5db"/>
  </g>
  
  <!-- Small hearts -->
  <path d="M270 100 C270 95 265 92 260 95 C255 92 250 95 250 100 C250 108 260 115 260 115 C260 115 270 108 270 100Z" fill="#f0abfc" opacity="0.6"/>
  <path d="M60 70 C60 67 57 65 54 67 C51 65 48 67 48 70 C48 75 54 79 54 79 C54 79 60 75 60 70Z" fill="#fca5a5" opacity="0.5"/>
</svg>
