<svg width="86" height="120" viewBox="0 0 139 192" fill="none" xmlns="http://www.w3.org/2000/svg">
<path d="M69.8555 41.4897V78.9897" stroke="#C2C2C2" stroke-width="8" stroke-linecap="round" stroke-linejoin="round"/>
<path d="M104.814 68.1148C108.878 65.8992 112.088 62.3934 113.938 58.1507C115.789 53.908 116.173 49.1699 115.031 44.6843C113.89 40.1987 111.287 36.2211 107.633 33.3791C103.98 30.5372 99.4842 28.9928 94.8556 28.9898H89.6056C88.3444 24.1116 85.9937 19.5828 82.7303 15.7439C79.4669 11.905 75.3757 8.8558 70.7643 6.82562C66.1529 4.79545 61.1412 3.83709 56.106 4.0226C51.0709 4.20812 46.1433 5.53268 41.6938 7.8967C37.2442 10.2607 33.3885 13.6027 30.4165 17.6714C27.4444 21.74 25.4334 26.4295 24.5346 31.3872C23.6358 36.345 23.8727 41.442 25.2273 46.295C26.5819 51.1481 29.0191 55.6309 32.3556 59.4064" stroke="#C2C2C2" stroke-width="8" stroke-linecap="round" stroke-linejoin="round"/>
<path d="M86.5228 58.1564L69.8561 41.4897L53.1895 58.1564" stroke="#C2C2C2" stroke-width="8" stroke-linecap="round" stroke-linejoin="round"/>
<path d="M120.444 96H18.5556C10.5167 96 4 100.577 4 106.222V177.778C4 183.423 10.5167 188 18.5556 188H120.444C128.483 188 135 183.423 135 177.778V106.222C135 100.577 128.483 96 120.444 96Z" stroke="#C2C2C2" stroke-width="8" stroke-linecap="round" stroke-linejoin="round"/>
<path d="M43 136C48.5228 136 53 131.523 53 126C53 120.477 48.5228 116 43 116C37.4772 116 33 120.477 33 126C33 131.523 37.4772 136 43 136Z" stroke="#C2C2C2" stroke-width="8" stroke-linecap="round" stroke-linejoin="round"/>
<path d="M135 157.333L98.6112 131.777L18.5557 188" stroke="#C2C2C2" stroke-width="8" stroke-linecap="round" stroke-linejoin="round"/>
</svg>
