<svg width="87" height="56" viewBox="0 0 87 56" fill="none" xmlns="http://www.w3.org/2000/svg">
<path d="M51.0068 42.9744C55.8545 42.9496 58.9032 44.6399 58.9032 47.5234C58.9032 50.4566 55.8545 52.1719 51.0068 52.1719C46.0341 52.1719 42.9105 50.4566 42.9355 47.5234C42.9105 44.6399 46.0341 42.9496 51.0068 42.9744ZM51.0068 46.032C48.283 46.032 46.9336 46.4297 46.9336 47.5234C46.9336 48.6172 48.283 49.0895 51.0068 49.0895C53.6805 49.0895 54.93 48.6172 54.93 47.5234C54.93 46.4297 53.6805 46.032 51.0068 46.032ZM58.6783 29.1037V34.1996H61.5519V37.4808H58.6783V42.5021H54.6551V29.1037H58.6783ZM44.6596 30.5952V33.1058H48.1331V30.5952H52.1312V41.483H40.6865V30.5952H44.6596ZM44.6596 38.4006H48.1331V36.1634H44.6596V38.4006ZM82.7522 39.4942V42.7258H74.0561V52.0725H70.0081V42.7258H61.6618V39.4942H66.2347C66.8844 37.0707 67.0219 35.2188 67.0594 33.5285H63.3111V30.3715H71.0325V32.2358C71.0325 34.2742 71.0325 36.5114 70.3078 39.4942H75.9053C76.3926 37.1204 76.48 35.2436 76.5051 33.5285H72.5568V30.3715H80.4781V32.3352C80.4781 34.299 80.4781 36.5735 79.9285 39.4942H82.7522Z" fill="black"/>
<path d="M2.55859 50.9091V19.0909L23.0292 2.54547L43.4998 19.0909V25.4546" stroke="#267365" stroke-width="4" stroke-linejoin="round"/>
<path d="M10.875 29.9091V48.3637H36.4632V38.8182H25.5882V29.9091H10.875Z" stroke="#F29F05" stroke-width="4" stroke-linejoin="round"/>
<path d="M25.5883 38.8182H10.2354" stroke="#F29F05" stroke-width="4"/>
</svg>
