<svg width="23" height="23" viewBox="0 0 23 23" fill="none" xmlns="http://www.w3.org/2000/svg">
<ellipse cx="11.0863" cy="11.2134" rx="11.0863" ry="11.2134" fill="#C92B2A"/>
<path d="M9.575 13.175L15.475 7.275C15.6583 7.09167 15.8917 7 16.175 7C16.4583 7 16.6917 7.09167 16.875 7.275C17.0583 7.45833 17.15 7.69167 17.15 7.975C17.15 8.25833 17.0583 8.49167 16.875 8.675L10.275 15.275C10.075 15.475 9.84167 15.575 9.575 15.575C9.30833 15.575 9.075 15.475 8.875 15.275L6.275 12.675C6.09167 12.4917 6 12.2583 6 11.975C6 11.6917 6.09167 11.4583 6.275 11.275C6.45833 11.0917 6.69167 11 6.975 11C7.25833 11 7.49167 11.0917 7.675 11.275L9.575 13.175Z" fill="white"/>
</svg>
