<svg xmlns="http://www.w3.org/2000/svg" xmlns:xlink="http://www.w3.org/1999/xlink" fill="currentColor" version="1.1" width="20" height="25.921977996826172" viewBox="0 0 20 25.921977996826172"><g><path d="M13.1766,0.0223291C12.7876,0.0871511,12.5405,0.190464,12.2345,0.41532C11.5073,0.954167,10.551,1.93867,10.3322,2.3742C10.2147,2.60716,10.1924,2.7368,10.2106,3.02446C10.2208,3.16018,10.2269,3.31008,10.2249,3.36073C10.2127,3.59369,10.0709,4.0981,9.94927,4.34928C9.87639,4.49919,9.76295,4.63694,9.71431,4.63694C9.69607,4.63694,9.64335,4.59845,9.60087,4.55388C9.47527,4.42423,9.35167,4.37359,9.14703,4.37359C8.94847,4.37359,8.78847,4.41208,8.57167,4.50931L8.41367,4.58224L8.22727,4.53565C8.01455,4.48299,7.74105,4.47286,7.60936,4.51135C7.50401,4.54375,7.37436,4.65517,7.31763,4.76456C7.29534,4.80912,7.26698,4.90434,7.2528,4.97929L7.22849,5.11299L6.84357,5.30543C6.63286,5.41279,6.37558,5.55257,6.27226,5.61537C6.16893,5.67816,6.07371,5.73083,6.06156,5.73083C6.05143,5.73083,6.02306,5.75311,6.00078,5.78147C5.94406,5.85238,5.91569,5.84427,5.85491,5.74298C5.76172,5.58295,5.54494,5.42292,5.34843,5.37025C5.25322,5.34392,5.25524,5.34392,5.43352,5.46343C5.59965,5.57283,5.88328,5.82402,5.88328,5.85846C5.88328,5.87263,5.86099,5.9091,5.8306,5.93948L5.77995,5.99418L5.68068,5.89289C5.56521,5.77338,5.37275,5.67614,5.22485,5.65993C5.1114,5.64778,5.09924,5.63765,5.37072,5.76324C5.56521,5.85238,5.76172,5.98607,5.76172,6.03064C5.76172,6.0509,5.74957,6.08534,5.73336,6.10762C5.70499,6.14408,5.70094,6.14408,5.64624,6.11167C5.44365,5.99013,5.27753,5.93341,5.12355,5.93543C5.05063,5.93543,5.06278,5.94354,5.25524,6.01241C5.37275,6.05495,5.51659,6.1137,5.57736,6.14408C5.67461,6.19473,5.68474,6.20486,5.67258,6.25347C5.6665,6.28386,5.65434,6.36489,5.64827,6.43376C5.64017,6.50264,5.62396,6.56341,5.6118,6.56746C5.57129,6.58164,3.72567,6.45807,3.70744,6.43984C3.69731,6.42971,3.70339,6.39325,3.72364,6.35273C3.79252,6.20688,3.75606,6.09141,3.58993,5.93138C3.46028,5.80579,3.35898,5.77945,3.24958,5.8463C3.19488,5.87871,3.19083,5.87668,3.09358,5.81389C3.01052,5.75717,2.98216,5.74906,2.90112,5.75717C2.83629,5.76324,2.78159,5.7835,2.72892,5.82402C2.65801,5.87871,2.63977,5.88276,2.4777,5.88276C2.27309,5.88276,2.21636,5.91314,2.21636,6.02456C2.21636,6.09546,2.19002,6.11572,2.10291,6.11572C2.04416,6.11572,2.00161,6.17852,1.98337,6.29196C1.97528,6.34058,1.96109,6.38312,1.95299,6.38919C1.94286,6.39527,1.80915,6.38109,1.65518,6.35881C0.891407,6.24739,0.443677,6.05698,0.265396,5.77134L0.220825,5.70045L0.206644,5.81186C0.139789,6.34666,0.1094,7.15694,0.155996,7.20353C0.174229,7.21974,0.170177,7.22379,0.388977,7.04756C0.581439,6.89157,0.822527,6.74572,0.986623,6.68495C1.11831,6.63634,1.36142,6.62621,1.40193,6.66672C1.41612,6.6809,1.42625,6.7275,1.42625,6.77206C1.42625,6.96653,1.52349,7.10833,1.69165,7.15694C1.73824,7.17113,1.78078,7.19138,1.78484,7.20151C1.78889,7.21164,1.69773,7.33521,1.58225,7.47296C0.733384,8.50407,0.210696,9.30623,0.0567259,9.81671L0,10.0051L0.0607777,10.0801C0.115477,10.1489,0.151944,10.1672,0.384925,10.2441C0.528766,10.2928,0.729332,10.3414,0.828599,10.3556L1.01093,10.3799L1.00283,10.7627C0.996751,11.1173,0.998783,11.1456,1.02917,11.1334C1.11223,11.101,1.58022,11.0585,1.84157,11.0585C2.42705,11.0605,2.9234,11.1719,3.42178,11.417C3.52308,11.4677,3.63248,11.5244,3.66692,11.5467L3.72972,11.5852L3.74391,11.417C3.76416,11.1577,3.83507,10.9329,3.95663,10.7506C4.01538,10.6635,4.06197,10.625,4.20176,10.548C4.29698,10.4933,4.38612,10.4508,4.4003,10.4508C4.43879,10.4508,4.42461,10.5075,4.22202,11.1193C3.92421,12.0187,3.73377,12.4684,3.44407,12.9586C3.23337,13.3131,2.35209,14.9013,2.09277,15.3936C1.68759,16.1613,1.34926,16.9291,1.27025,17.2552L1.23581,17.397L1.29457,17.5409C1.33103,17.634,1.37357,17.6989,1.41004,17.7252C1.51944,17.8041,1.7504,17.8933,2.44934,18.1283C3.30225,18.416,3.98094,18.6833,4.67178,19.0075L4.82575,19.0804L4.81562,19.2789C4.79333,19.6719,4.86829,19.8886,5.12559,20.1743C5.21067,20.2695,5.29576,20.3829,5.31602,20.4255C5.35046,20.4984,5.35046,20.5126,5.3221,20.5653C5.30589,20.5997,5.29779,20.6463,5.30589,20.6746C5.32007,20.7374,5.66245,21.0838,5.90962,21.2864C6.01902,21.3776,6.08587,21.4465,6.08587,21.4708C6.08587,21.5943,6.24592,21.8961,6.42622,22.1129C6.50523,22.2061,6.77468,22.4431,6.9631,22.5809C7.09883,22.6821,7.09275,22.6437,7.05831,23.1825C7.00362,24.0273,6.88206,24.4546,6.61869,24.718C6.43433,24.9044,6.36342,24.9368,6.12031,24.955C5.87518,24.9732,5.8306,24.9915,5.64422,25.1656C5.56926,25.2345,5.44163,25.344,5.36262,25.4088C5.27145,25.4776,5.21472,25.5384,5.21472,25.5627C5.21472,25.6093,5.29374,25.6741,5.39098,25.7045C5.44568,25.7248,5.45986,25.7369,5.45175,25.7673C5.44568,25.7876,5.45175,25.8078,5.46391,25.8099C5.48822,25.8139,6.22363,25.8281,6.49308,25.8301C6.67744,25.8301,6.8152,25.7896,6.95904,25.6924C7.06844,25.6194,7.10694,25.6093,7.13125,25.6458C7.16771,25.7086,7.60531,25.587,7.84842,25.4472C8.12599,25.2892,8.18879,25.1171,8.25359,24.3392C8.31639,23.5937,8.38127,23.2433,8.45215,23.2574C8.50479,23.2676,8.52911,23.379,8.60815,23.9523C8.69327,24.5863,8.71351,24.6694,8.80463,24.7119C8.86543,24.7382,8.88167,24.7686,8.96471,24.9874C9.07615,25.2852,9.11871,25.354,9.25239,25.4696C9.47727,25.6579,9.66567,25.7288,9.83383,25.6843C9.91487,25.662,9.92903,25.666,10.0324,25.7167C10.1296,25.7653,10.1641,25.7714,10.3119,25.7693C10.4618,25.7653,10.4882,25.7714,10.555,25.816C10.5956,25.8443,10.6766,25.8808,10.7353,25.899C10.8366,25.9314,10.8448,25.9314,10.9805,25.8868C11.0575,25.8605,11.1446,25.8281,11.1749,25.8139C11.2216,25.7896,11.252,25.7896,11.3735,25.816C11.5518,25.8544,11.5984,25.8544,11.647,25.818C11.6835,25.7916,11.6835,25.7876,11.6308,25.6984C11.564,25.585,11.4161,25.431,11.2885,25.344C11.2357,25.3075,11.0534,25.2163,10.8792,25.1393C10.707,25.0624,10.5267,24.9732,10.4781,24.9388C10.3646,24.8618,10.2208,24.7058,10.1499,24.5863C9.83383,24.0454,9.76295,23.1157,10.004,22.6477C10.0668,22.5302,10.1843,22.4188,10.4963,22.1879C10.6685,22.0582,10.8265,21.9245,10.8569,21.882C10.8853,21.8394,10.9319,21.7321,10.9582,21.6409C11.0332,21.3958,11.0777,21.3492,11.4545,21.0879C11.7057,20.9117,11.7889,20.8387,11.8395,20.7395C11.8901,20.6402,11.9205,20.4498,11.9205,20.2148C11.9205,20.0142,11.9813,19.6962,12.0562,19.4957C12.0927,19.3964,12.0968,19.3944,12.194,19.3802C12.2508,19.3701,12.4918,19.3377,12.7309,19.3033C13.3609,19.2161,14.1105,19.0784,14.1227,19.048C14.1268,19.0338,14.1045,18.8981,14.0701,18.7441C14.0153,18.4929,14.0113,18.4585,14.0376,18.418C14.1025,18.3187,14.4873,18.102,14.9108,17.9257C15.0202,17.8812,15.1113,17.8406,15.1154,17.8366C15.1194,17.8345,15.0931,17.7637,15.0587,17.6806C14.9553,17.4355,14.8439,17.0952,14.8176,16.9433L14.7933,16.8014L14.8825,16.7225C15.0344,16.5867,15.6928,16.0641,15.8346,15.9669C15.9096,15.9162,15.9825,15.8797,15.9987,15.8858C16.023,15.8959,16.0291,16.0317,16.0372,16.7346C16.0433,17.1945,16.0393,17.5813,16.0311,17.5915C16.023,17.6037,15.9622,17.6361,15.8974,17.6624C15.3301,17.8953,14.9999,18.3389,14.9999,18.8677C15.002,19.1473,15.1194,19.4085,15.3362,19.605C15.5307,19.7833,15.8164,19.8825,16.1952,19.9049C16.5761,19.9251,16.724,19.8623,16.8941,19.605C17.0157,19.4248,17.117,19.1877,17.1798,18.9426C17.2589,18.6408,17.2224,18.4767,17.0157,18.1911C16.8192,17.9176,16.6713,17.788,16.3593,17.6178L16.2965,17.5833L16.2965,16.6333L16.2965,15.6833L16.3431,15.6427C16.4586,15.5353,16.8698,15.3591,17.2001,15.2741C17.2892,15.2517,17.5729,15.195,17.8281,15.1505C18.0834,15.1039,18.4014,15.0411,18.5352,15.0066C18.7418,14.956,19.3577,14.7595,19.5461,14.6865L19.6029,14.6643L19.5137,14.5671C19.3678,14.4111,19.2625,14.2592,19.1834,14.0951C19.0721,13.8581,19.0741,13.8479,19.2605,13.7203C19.6697,13.4408,19.8763,13.1713,19.9736,12.7865C20.0101,12.6426,20.0101,12.6406,19.9655,12.4846C19.8398,12.0511,19.4387,11.5061,19.1349,11.3563C19.0133,11.2975,18.9849,11.2914,18.8188,11.2935C18.5717,11.2935,18.3407,11.3664,18.0773,11.5265C17.7471,11.727,17.0481,12.2962,16.6125,12.7216C16.4525,12.8756,16.3127,13.0032,16.3005,13.0032C16.2884,13.0032,16.252,12.9586,16.2195,12.9039C16.1304,12.7601,15.9704,12.6102,15.8366,12.5433C15.7313,12.4927,15.6969,12.4866,15.5206,12.4866L15.3241,12.4866L15.1013,12.2497C14.9777,12.12,14.8317,11.9802,14.7771,11.9397C14.7204,11.8992,14.6757,11.8566,14.6757,11.8485C14.6757,11.8323,15.0141,11.3522,15.4801,10.706C15.6948,10.4082,15.7069,10.3677,15.6037,10.2583C15.5307,10.1833,14.9249,9.81879,14.5603,9.63239C14.4347,9.56759,14.3313,9.50679,14.3313,9.49871C14.3313,9.47031,14.4165,9.39743,14.4995,9.35487C14.5826,9.31231,14.7507,9.26575,14.9067,9.24551L15.0081,9.23127L14.9067,9.17055C14.8054,9.10567,14.5927,9.01255,14.4833,8.98215C14.4509,8.97399,14.3334,8.95983,14.224,8.95375L14.0254,8.94159L14.1369,8.82815C14.2949,8.66207,14.3597,8.54255,14.3597,8.41495C14.3597,8.26703,14.3091,8.20831,14.0012,8.00367C13.681,7.79302,13.6203,7.7363,13.3994,7.42637C13.2191,7.17315,13.1745,7.12858,13.1017,7.12858C13.0469,7.12858,13.0389,7.14479,12.9253,7.43649C12.7897,7.78492,12.5121,8.41287,12.4898,8.42103C12.4797,8.42503,12.4473,8.41287,12.4169,8.39263C12.3764,8.36631,12.3399,8.36223,12.2447,8.37039C12.1778,8.37847,12.1231,8.37847,12.1231,8.37239C12.1231,8.36831,12.1433,8.32375,12.1697,8.27719C12.2122,8.19415,12.2143,8.17591,12.2122,7.64515C12.2122,7.34129,12.2001,7.03946,12.188,6.96653C12.1677,6.85309,12.1555,6.82473,12.0907,6.76801C11.9975,6.68698,11.8111,6.62823,11.5944,6.61C11.412,6.59379,11.3937,6.57758,11.3937,6.42566C11.3937,6.27778,11.7017,5.95974,12.1049,5.69032C12.3703,5.51206,12.5181,5.43711,13.0267,5.22238C13.754,4.91649,14.0073,4.77063,14.4934,4.37967C14.9533,4.01099,15.3464,3.59774,15.6077,3.2088C15.8589,2.83607,16.1345,2.12909,16.3148,1.4059C16.3978,1.06761,16.4181,0.946063,16.4181,0.769823C16.4181,0.488247,16.337,0.342395,16.181,0.342395C16.0332,0.342395,15.9481,0.417346,15.162,1.25195C14.8378,1.59834,14.6981,1.70976,14.3415,1.91233C13.835,2.19999,13.2373,2.6497,12.8727,3.01433C12.6437,3.24324,12.5445,3.36478,12.2791,3.74157C12.1029,3.98871,11.9023,4.26218,11.8354,4.34523C11.6409,4.5863,11.3107,4.86179,11.0149,5.02791C10.9055,5.09071,10.6462,5.20415,10.6158,5.20415C10.5753,5.20415,10.6361,5.12514,10.8954,4.84356C11.5173,4.16899,12.0157,3.52481,12.2913,3.04269C12.4209,2.81581,12.4999,2.6416,12.7126,2.10478C12.814,1.85561,12.9557,1.53149,13.0307,1.38565C13.1685,1.12027,13.5453,0.500399,13.6851,0.312009C13.7965,0.158052,13.8148,0.119563,13.7803,0.0871511C13.7459,0.0527148,13.4845,-0.00197998,13.3731,0.0000463867C13.3265,0.00207031,13.2373,0.0121997,13.1766,0.0223291ZM1.99148,6.68293C2.11304,6.68293,2.13127,6.6971,2.15356,6.81054C2.17381,6.91791,2.16369,6.93817,2.05226,7.00299C1.98945,7.04148,1.9692,7.0435,1.90032,7.02527C1.75445,6.98476,1.65923,6.8855,1.6491,6.76395C1.63897,6.65659,1.641,6.65659,1.77268,6.67077C1.84157,6.67685,1.94083,6.68293,1.99148,6.68293ZM4.04982,6.81662C4.11667,6.82473,4.18353,6.8389,4.19771,6.84904C4.23823,6.88347,4.2281,7.05363,4.1815,7.10428C4.11262,7.1772,3.89585,7.18936,3.83912,7.12048C3.80265,7.07794,3.71352,6.8227,3.7277,6.80245C3.7358,6.79029,3.78037,6.78624,3.83507,6.79231C3.88572,6.79839,3.98296,6.80852,4.04982,6.81662ZM5.63611,6.87942C5.64624,6.89968,5.66043,6.96855,5.66853,7.03135L5.68068,7.14682L5.57534,7.22785C5.35451,7.39193,5.17623,7.62084,5.10532,7.82746C5.04657,8.00367,5.02429,8.28935,5.04859,8.56887C5.06278,8.71071,5.0648,8.82615,5.05467,8.83631C4.99187,8.89911,4.22202,7.47701,4.22202,7.30078C4.22202,7.28254,4.25849,7.25418,4.30914,7.2319C4.46715,7.16302,4.54415,7.05161,4.51983,6.92804C4.51375,6.89562,4.51375,6.86524,4.51983,6.85714C4.52794,6.85106,4.77712,6.84498,5.07494,6.84498C5.57129,6.84498,5.6199,6.84701,5.63611,6.87942ZM13.2779,12.8411C13.3366,12.9809,13.4663,13.0721,13.7033,13.1349C13.7317,13.1429,13.7945,13.1936,13.8431,13.2483C13.9241,13.3395,13.9302,13.3537,13.91,13.4002C13.8249,13.5845,13.9383,13.8175,14.2787,14.166C14.3941,14.2814,14.4124,14.3077,14.3901,14.3301C14.3739,14.3442,14.2139,14.4273,14.0315,14.5144C13.8026,14.6238,13.6953,14.6643,13.681,14.6501C13.6405,14.6096,13.4785,14.1093,13.3974,13.7831C13.3205,13.4671,13.2171,12.9181,13.2171,12.8269C13.2171,12.7621,13.2475,12.7682,13.2779,12.8411Z" fill="#FFFFFF" fill-opacity="1" style="mix-blend-mode:passthrough"/></g></svg>