<svg xmlns="http://www.w3.org/2000/svg" xmlns:xlink="http://www.w3.org/1999/xlink" fill="none" version="1.1" width="180" height="233.2977752685547" viewBox="0 0 180 233.2977752685547"><g transform="matrix(-1,0,0,1,360,0)"><path d="M298.59000000000003,0.200962C295.08799999999997,0.78436,292.86400000000003,1.71417,290.111,3.73787C283.565,8.5875,274.9592,17.448,272.99,21.3678C271.93240000000003,23.4644,271.7315,24.6312,271.8956,27.2201C271.9871,28.4416,272.04179999999997,29.7908,272.0238,30.2466C271.9144,32.3432,270.63779999999997,36.8829,269.5434,39.1435C268.8875,40.4927,267.8665,41.7324,267.4288,41.7324C267.2646,41.7324,266.7901,41.3861,266.4078,40.9849C265.2774,39.8181,264.165,39.3623,262.3232,39.3623C260.5362,39.3623,259.0962,39.7087,257.145,40.5838L255.723,41.2402L254.0454,40.8209C252.131,40.3469,249.6694,40.2557,248.4842,40.6021C247.5361,40.8938,246.3692,41.8965,245.8587,42.8811C245.6581,43.2821,245.4028,44.139,245.27519999999998,44.8136L245.0564,46.0169L241.59210000000002,47.7489C239.6958,48.7151,237.3802,49.9731,236.4503,50.5383C235.5204,51.1034,234.6634,51.5775,234.554,51.5775C234.4629,51.5775,234.2076,51.778,234.007,52.0332C233.4965,52.6714,233.2412,52.5984,232.6942,51.6869C231.8555,50.2466,229.90449999999998,48.8063,228.1359,48.3322C227.279,48.0953,227.2972,48.0953,228.9017,49.1709C230.39679999999998,50.1554,232.9495,52.4161,232.9495,52.7261C232.9495,52.8537,232.7489,53.1819,232.4754,53.4553L232.0196,53.9476L231.1261,53.036C230.0869,51.9604,228.3547,51.0852,227.0236,50.9394C226.0026,50.83,225.8932,50.7388,228.3365,51.8692C230.0869,52.6714,231.8555,53.8746,231.8555,54.2758C231.8555,54.4581,231.7461,54.768,231.6002,54.9685C231.3449,55.2967,231.3085,55.2967,230.8162,55.005C228.9928,53.9112,227.49779999999998,53.4007,226.112,53.4189C225.4556,53.4189,225.565,53.4918,227.2972,54.1117C228.3547,54.4946,229.64929999999998,55.0233,230.1963,55.2967C231.07150000000001,55.7525,231.1626,55.8437,231.0532,56.2812C230.9985,56.5547,230.88909999999998,57.284,230.8345,57.9038C230.7615,58.5238,230.6156,59.0707,230.5062,59.1071C230.14159999999998,59.2347,213.531,58.1226,213.3669,57.9585C213.2758,57.8674,213.3305,57.5392,213.5128,57.1745C214.1327,55.8619,213.8045,54.8227,212.30939999999998,53.3824C211.14249999999998,52.2521,210.2308,52.015,209.2462,52.6167C208.7539,52.9084,208.7175,52.8901,207.8422,52.325C207.0946,51.8145,206.8394,51.7416,206.11,51.8145C205.5266,51.8692,205.0343,52.0515,204.5602,52.4161C203.9221,52.9084,203.758,52.9448,202.2993,52.9448C200.4578,52.9448,199.9472,53.2183,199.9472,54.221C199.9472,54.8592,199.7102,55.0415,198.9262,55.0415C198.3974,55.0415,198.0145,55.6067,197.8504,56.6276C197.7775,57.0652,197.6498,57.4481,197.5769,57.5027C197.4858,57.5574,196.2823,57.4298,194.8966,57.2293C188.02266,56.2265,183.99309,54.5128,182.38856,51.9421L181.98743,51.304L181.85979,52.3068C181.2581,57.1199,180.984599,64.4125,181.40396,64.8318C181.56806,64.9777,181.5316,65.0141,183.50079,63.428C185.23295,62.0242,187.40274,60.7115,188.8796,60.1646C190.0648,59.727,192.2528,59.6359,192.6174,60.0005C192.7451,60.1281,192.8362,60.5475,192.8362,60.9485C192.8362,62.6987,193.7114,63.9749,195.2248,64.4125C195.6441,64.5401,196.027,64.7224,196.0635,64.8136C196.1,64.9047,195.2795,66.0169,194.2402,67.2566C186.60045,76.5366,181.89626,83.7561,180.510533,88.3504L180,90.046L180.546999,90.7206C181.0393,91.3405,181.36749,91.5047,183.46433,92.1973C184.75889,92.6351,186.56399,93.0728,187.45739,93.2003L189.09841,93.4192L189.02548,96.8643C188.97076,100.055,188.98904,100.31,189.2625,100.201C190.0101,99.9092,194.222,99.5262,196.5741,99.5262C201.8435,99.5449,206.3106,100.547,210.796,102.753C211.7077,103.209,212.6923,103.719,213.00220000000002,103.92L213.5675,104.267L213.6952,102.753C213.8775,100.42,214.5156,98.3958,215.6096,96.7556C216.1384,95.9716,216.5577,95.6252,217.8159,94.9319C218.6728,94.4401,219.4751,94.0571,219.6027,94.0571C219.9491,94.0571,219.82150000000001,94.5676,217.9982,100.073C215.3179,108.168,213.6039,112.215,210.9966,116.628C209.1003,119.818,201.1688,134.112,198.835,138.542C195.1883,145.452,192.14339999999999,152.362,191.4323,155.297L191.1223,156.573L191.65109999999999,157.868C191.9793,158.706,192.3622,159.29,192.6903,159.527C193.6749,160.237,195.7536,161.04,202.04410000000001,163.155C209.7203,165.744,215.8284,168.15,222.046,171.067L223.4317,171.723L223.3406,173.51C223.14,177.047,223.81459999999998,178.998,226.1303,181.569C226.8961,182.425,227.6618,183.446,227.8442,183.829C228.1541,184.485,228.1541,184.613,227.8989,185.087C227.753,185.397,227.6801,185.817,227.753,186.072C227.8807,186.637,230.962,189.754,233.1865,191.577C234.1712,192.398,234.7729,193.018,234.7729,193.237C234.7729,194.349,236.2133,197.065,237.836,199.016C238.5471,199.854,240.9721,201.988,242.6679,203.228C243.8895,204.139,243.8348,203.793,243.5248,208.642C243.0325,216.245,241.9385,220.091,239.5682,222.462C237.90890000000002,224.139,237.2708,224.431,235.0828,224.595C232.8766,224.759,232.4754,224.923,230.798,226.491C230.1233,227.111,228.9746,228.096,228.2636,228.679C227.44299999999998,229.299,226.9325,229.846,226.9325,230.064C226.9325,230.484,227.6436,231.067,228.5188,231.341C229.0111,231.523,229.1387,231.632,229.0658,231.906C229.0111,232.088,229.0658,232.27,229.1752,232.289C229.394,232.325,236.0127,232.453,238.4377,232.471C240.097,232.471,241.33679999999998,232.106,242.63139999999999,231.231C243.6159,230.575,243.9624,230.484,244.1812,230.812C244.5094,231.377,248.4478,230.283,250.63580000000002,229.025C253.13389999999998,227.603,253.6991,226.054,254.28230000000002,219.052C254.8475,212.344,255.4314,209.189,256.0693,209.317C256.5431,209.408,256.762,210.411,257.4733,215.571C258.2394,221.277,258.4216,222.025,259.2417,222.407C259.7889,222.644,259.935,222.917,260.68240000000003,224.887C261.6853,227.566,262.0684,228.186,263.2715,229.226C265.2954,230.921,266.991,231.56,268.50440000000003,231.159C269.2338,230.958,269.3612,230.994,270.2915,231.45C271.1663,231.888,271.4766,231.943,272.80719999999997,231.924C274.1564,231.888,274.394,231.943,274.9952,232.344C275.3603,232.599,276.0896,232.927,276.6181,233.091C277.5296,233.383,277.6031,233.383,278.8242,232.982C279.5175,232.745,280.302,232.453,280.575,232.325C280.994,232.106,281.26800000000003,232.106,282.36199999999997,232.344C283.966,232.69,284.385,232.69,284.823,232.362C285.152,232.125,285.152,232.088,284.677,231.286C284.076,230.265,282.745,228.879,281.596,228.096C281.122,227.767,279.4808,226.947,277.9127,226.254C276.3632,225.561,274.7404,224.759,274.3026,224.449C273.2816,223.756,271.9871,222.352,271.3492,221.277C268.50440000000003,216.409,267.8665,208.041,270.03589999999997,203.83C270.6011,202.772,271.6588,201.769,274.46680000000003,199.691C276.0162,198.524,277.4389,197.321,277.7125,196.938C277.9674,196.555,278.3872,195.588,278.624,194.768C279.2987,192.562,279.6997,192.143,283.091,189.791C285.352,188.205,286.1,187.548,286.556,186.655C287.01099999999997,185.762,287.28499999999997,184.048,287.28499999999997,181.933C287.28499999999997,180.128,287.831,177.266,288.506,175.461C288.834,174.567,288.871,174.549,289.746,174.422C290.257,174.33,292.426,174.039,294.578,173.729C300.248,172.945,306.995,171.705,307.104,171.432C307.141,171.304,306.94,170.082,306.631,168.697C306.13800000000003,166.436,306.101,166.126,306.33799999999997,165.762C306.922,164.868,310.38599999999997,162.918,314.197,161.332C315.182,160.931,316.002,160.566,316.039,160.53C316.075,160.511,315.83799999999997,159.873,315.528,159.126C314.598,156.919,313.595,153.857,313.358,152.489L313.139,151.213L313.942,150.502C315.30899999999997,149.28,321.235,144.577,322.512,143.702C323.18600000000004,143.246,323.842,142.918,323.988,142.972C324.207,143.063,324.262,144.285,324.33500000000004,150.612C324.389,154.75,324.353,158.232,324.28,158.323C324.207,158.433,323.65999999999997,158.725,323.077,158.961C317.971,161.058,314.999,165.05,314.999,169.809C315.01800000000003,172.325,316.075,174.677,318.026,176.445C319.776,178.05,322.347,178.943,325.757,179.144C329.185,179.326,330.51599999999996,178.761,332.047,176.445C333.142,174.823,334.053,172.69,334.618,170.484C335.33000000000004,167.767,335.001,166.29,333.142,163.72C331.373,161.258,330.04200000000003,160.092,327.23400000000004,158.56L326.669,158.25L326.669,149.7L326.669,141.149L327.08799999999997,140.784C328.128,139.818,331.828,138.232,334.801,137.467C335.603,137.266,338.156,136.755,340.453,136.354C342.751,135.935,345.613,135.37,346.817,135.06C348.676,134.604,354.219,132.835,355.914,132.179L356.426,131.979L355.623,131.104C354.31,129.7,353.36199999999997,128.333,352.651,126.856C351.648,124.723,351.666,124.631,353.344,123.483C357.027,120.967,358.887,118.542,359.762,115.078C360.09000000000003,113.784,360.09000000000003,113.766,359.68899999999996,112.362C358.558,108.46,354.948,103.555,352.214,102.207C351.119,101.678,350.86400000000003,101.623,349.369,101.642C347.145,101.642,345.06600000000003,102.297,342.696,103.738C339.724,105.543,333.433,110.666,329.51300000000003,114.494C328.073,115.88,326.81399999999996,117.029,326.70500000000004,117.029C326.595,117.029,326.26800000000003,116.628,325.975,116.135C325.173,114.841,323.733,113.492,322.53,112.89C321.581,112.434,321.272,112.38,319.68600000000004,112.38L317.91700000000003,112.38L315.911,110.247C314.799,109.08,313.486,107.822,312.994,107.457C312.483,107.093,312.082,106.71,312.082,106.637C312.082,106.491,315.127,102.17,319.321,96.3539C321.253,93.674,321.36199999999997,93.3097,320.433,92.3248C319.776,91.6501,314.324,88.3691,311.043,86.6915C309.91200000000003,86.1083,308.98199999999997,85.5611,308.98199999999997,85.4884C308.98199999999997,85.2328,309.748,84.5768,310.496,84.1938C311.244,83.8108,312.756,83.3917,314.15999999999997,83.2096L315.073,83.0814L314.15999999999997,82.5349C313.249,81.951,311.334,81.1129,310.35,80.8393C310.058,80.7659,309.001,80.6385,308.01599999999996,80.5837L306.229,80.4743L307.23199999999997,79.4533C308.654,77.9586,309.238,76.8829,309.238,75.7345C309.238,74.4033,308.78200000000004,73.8748,306.01099999999997,72.033C303.129,70.1372,302.58299999999997,69.6267,300.595,66.8373C298.972,64.5584,298.571,64.1572,297.915,64.1572C297.422,64.1572,297.35,64.3031,296.328,66.9284C295.10699999999997,70.0643,292.609,75.7158,292.408,75.7893C292.317,75.8253,292.025,75.7158,291.752,75.5337C291.387,75.2968,291.05899999999997,75.2601,290.202,75.3335C289.6,75.4062,289.108,75.4062,289.108,75.3515C289.108,75.3148,289.29,74.9137,289.528,74.4947C289.90999999999997,73.7473,289.929,73.5832,289.90999999999997,68.8064C289.90999999999997,66.0716,289.801,63.3551,289.692,62.6987C289.509,61.6778,289.4,61.4225,288.81600000000003,60.9121C287.978,60.1828,286.3,59.6541,284.349,59.49C282.70799999999997,59.3441,282.544,59.1982,282.544,57.8309C282.544,56.5,285.31600000000003,53.6376,288.944,51.2129C291.33299999999997,49.6085,292.663,48.9339,297.24,47.0014C303.786,44.2484,306.065,42.9357,310.44100000000003,39.4171C314.58000000000004,36.0989,318.11699999999996,32.3797,320.47,28.8792C322.73,25.5246,325.21000000000004,19.1618,326.83299999999997,12.6531C327.58000000000004,9.60846,327.76300000000003,8.51456,327.76300000000003,6.92841C327.76300000000003,4.39422,327.033,3.08155,325.629,3.08155C324.299,3.08155,323.533,3.75611,316.45799999999997,11.2676C313.53999999999996,14.3851,312.283,15.3878,309.074,17.211C304.515,19.7999,299.13599999999997,23.8473,295.854,27.129C293.794,29.1891,292.901,30.283,290.512,33.6741C288.926,35.8984,287.121,38.3596,286.519,39.1071C284.769,41.2767,281.796,43.7561,279.1345,45.2511C278.1496,45.8163,275.81600000000003,46.8373,275.5424,46.8373C275.1781,46.8373,275.7246,46.1262,278.0588,43.5921C283.656,37.521,288.142,31.7233,290.621,27.3842C291.788,25.3423,292.499,23.7744,294.414,18.943C295.326,16.7005,296.602,13.7834,297.276,12.4708C298.516,10.0824,301.908,4.50359,303.166,2.80808C304.169,1.42247,304.33299999999997,1.07607,304.023,0.78436C303.71299999999997,0.474433,301.361,-0.0178198,300.358,0.00041748C299.93899999999996,0.0186328,299.13599999999997,0.109797,298.59000000000003,0.200962ZM197.9233,60.1463C199.0173,60.1463,199.1814,60.2739,199.382,61.2949C199.5643,62.2612,199.4732,62.4435,198.4704,63.0269C197.9051,63.3733,197.7228,63.3915,197.1029,63.2274C195.79,62.8628,194.9331,61.9695,194.8419,60.8756C194.7508,59.9093,194.769,59.9093,195.9541,60.0369C196.5741,60.0916,197.4675,60.1463,197.9233,60.1463ZM216.4484,61.3496C217.0501,61.4225,217.6518,61.5501,217.7794,61.6413C218.144,61.9512,218.0529,63.4827,217.6335,63.9385C217.0136,64.5948,215.0627,64.7042,214.5521,64.0843C214.22390000000001,63.7015,213.4216,61.4043,213.54930000000002,61.222C213.6222,61.1126,214.0233,61.0761,214.5156,61.1308C214.97140000000002,61.1855,215.8467,61.2767,216.4484,61.3496ZM230.725,61.9148C230.8162,62.0971,230.9438,62.717,231.0168,63.2822L231.1261,64.3213L230.178,65.0506C228.19060000000002,66.5273,226.5861,68.5875,225.9479,70.4472C225.41910000000001,72.033,225.2186,74.6041,225.4373,77.1198C225.565,78.3964,225.5832,79.4353,225.4921,79.5268C224.9269,80.092,217.9982,67.2931,217.9982,65.707C217.9982,65.5429,218.3264,65.2876,218.7822,65.0871C220.2044,64.4672,220.8973,63.4645,220.67849999999999,62.3523C220.62380000000002,62.0606,220.62380000000002,61.7871,220.67849999999999,61.7142C220.7514,61.6596,222.9941,61.6048,225.6744,61.6048C230.14159999999998,61.6048,230.57909999999998,61.6231,230.725,61.9148ZM299.501,115.57C300.03,116.828,301.197,117.649,303.33,118.214C303.585,118.286,304.15,118.742,304.58799999999997,119.235C305.317,120.056,305.372,120.183,305.19,120.602C304.424,122.261,305.445,124.358,308.50800000000004,127.494C309.547,128.533,309.711,128.77,309.51099999999997,128.971C309.365,129.098,307.925,129.845,306.284,130.629C304.224,131.614,303.257,131.979,303.129,131.851C302.765,131.486,301.306,126.983,300.577,124.048C299.884,121.204,298.954,116.263,298.954,115.442C298.954,114.859,299.228,114.914,299.501,115.57Z" fill="#FFFFFF" fill-opacity="1" style="mix-blend-mode:passthrough"/></g></svg>