<svg version="1.1" id="Layer_1" xmlns="http://www.w3.org/2000/svg" xmlns:xlink="http://www.w3.org/1999/xlink" x="0px" y="0px"
	 width="100%" viewBox="0 0 1024 784" enable-background="new 0 0 1024 784" xml:space="preserve">
<path fill="#000000" opacity="1.000000" stroke="none" 
	d="
M470.000000,224.726700 
	C525.662537,224.734192 580.834167,224.132355 635.984497,224.957642 
	C675.950989,225.555725 705.351013,244.744781 723.160034,280.651611 
	C729.196289,292.821869 731.933350,306.167542 731.953003,319.801270 
	C732.039551,379.796936 732.091431,439.793610 731.783081,499.788025 
	C731.712158,513.578369 732.659241,527.611694 729.608337,541.136475 
	C724.181152,565.195312 711.952026,585.117371 691.130432,599.189392 
	C674.369385,610.517151 655.910706,616.263245 635.694275,616.285950 
	C584.366638,616.343750 533.038818,616.302673 481.711365,616.422302 
	C454.401703,616.485962 427.087646,617.225586 399.784576,616.900696 
	C361.138336,616.440979 331.197479,599.887573 311.631989,566.217041 
	C302.908600,551.204895 300.190094,534.339539 300.150513,517.174194 
	C300.002167,452.846069 300.010864,388.517395 300.067108,324.189056 
	C300.098145,288.717346 314.079590,260.399841 343.733368,240.293289 
	C359.061218,229.900360 376.180878,224.998276 394.505096,224.761475 
	C419.499359,224.438461 444.501343,224.711273 470.000000,224.726700 
M468.535431,596.714905 
	C524.673035,596.721558 580.815796,597.175110 636.945923,596.533997 
	C662.471802,596.242432 683.532104,585.270508 698.838501,564.333618 
	C709.428284,549.848206 712.632812,533.206909 712.642456,515.722961 
	C712.678101,450.907135 712.711548,386.091248 712.624573,321.275513 
	C712.597778,301.322235 706.016907,283.645538 692.393188,268.997772 
	C676.896240,252.335831 657.409790,245.091110 634.742554,245.155823 
	C577.259583,245.319931 519.775635,245.177277 462.292084,245.167007 
	C455.327637,245.165756 455.233032,245.287415 455.177795,252.058487 
	C454.448181,341.523804 455.792389,430.992920 454.551117,520.460632 
	C454.257904,541.596008 454.864929,562.765320 454.982117,583.920532 
	C455.062073,598.347656 453.753052,596.404297 468.535431,596.714905 
M433.644287,267.405518 
	C428.580475,269.058716 426.115601,273.751923 422.535370,277.093994 
	C411.592438,287.309113 401.641815,298.564941 390.264465,308.324677 
	C385.915497,312.055298 382.320282,311.904114 378.082367,308.670593 
	C372.503662,304.414062 372.217804,297.842926 378.160614,291.806122 
	C391.472504,278.283630 405.126312,265.098145 418.576904,251.711151 
	C420.004425,250.290344 422.243652,249.238998 421.993866,246.416046 
	C421.049591,246.106339 420.123749,245.548416 419.189636,245.534286 
	C404.250580,245.308105 389.322144,244.173553 374.552216,248.175262 
	C347.440857,255.520706 320.615082,283.327850 320.986267,317.346405 
	C321.286194,344.834351 320.969971,372.328918 320.951874,399.820526 
	C320.924316,441.627533 320.649597,483.436829 321.008331,525.240601 
	C321.209076,548.635071 332.328033,566.925659 350.434784,581.027466 
	C367.186554,594.073975 386.916016,597.052246 407.466522,596.694885 
	C409.490387,596.659668 410.865662,595.592529 412.214111,594.286926 
	C418.674744,588.031555 425.112274,581.750854 431.663879,575.591736 
	C434.024078,573.372925 435.062012,570.894836 434.980194,567.644104 
	C434.825165,561.485840 435.209869,555.329712 435.431213,549.174377 
	C435.577087,545.117004 436.406311,540.725098 434.512085,536.664429 
	C432.331268,536.897827 431.356201,538.099365 430.330078,539.132690 
	C421.651917,547.871887 413.070892,556.709045 404.308624,565.362793 
	C399.460632,570.150757 394.919983,575.325500 389.140350,579.071716 
	C385.046143,581.725586 381.033844,581.770630 377.317017,578.167480 
	C374.029572,574.980652 373.038330,569.803467 375.358887,565.774048 
	C376.420197,563.931152 377.943542,562.298462 379.473816,560.790100 
	C396.909180,543.604370 414.369934,526.444336 431.874847,509.329529 
	C433.892151,507.357239 435.114349,505.283905 435.081787,502.355652 
	C434.976288,492.860138 435.049530,483.362762 434.986938,473.866516 
	C434.977753,472.469696 435.441162,470.802185 433.665222,469.838470 
	C431.318878,470.523743 429.936768,472.453125 428.287598,474.065857 
	C416.144440,485.941132 404.047974,497.865601 391.784302,509.615448 
	C387.426361,513.790771 383.209808,514.145203 379.106537,511.411041 
	C372.911987,507.283325 372.570343,499.815430 378.568237,493.966034 
	C395.854401,477.107941 413.182892,460.292236 430.627411,443.598480 
	C433.611969,440.742401 435.160187,437.873169 434.983429,433.605103 
	C434.666626,425.955109 435.008820,418.279968 434.929169,410.616821 
	C434.902405,408.044281 435.465759,405.342224 434.229492,402.868042 
	C431.392883,402.625641 430.181335,404.610565 428.769470,406.140839 
	C417.028015,418.867004 404.291748,430.587128 391.879761,442.633728 
	C389.397827,445.042511 386.346497,446.393768 382.765198,445.657349 
	C378.947205,444.872223 375.875854,442.858734 374.594330,439.091400 
	C373.030823,434.495117 374.731079,430.675507 378.099213,427.375061 
	C395.698547,410.129120 413.252838,392.837250 430.846619,375.585693 
	C433.007782,373.466583 435.057526,371.515533 435.009094,368.033691 
	C434.879364,358.706146 435.069702,349.374542 435.008911,340.045380 
	C434.997894,338.353149 435.676971,336.334656 433.605621,334.866119 
	C431.304230,335.890289 429.760376,337.897797 428.024017,339.628174 
	C416.346832,351.264893 404.731598,362.963898 393.025848,374.571716 
	C387.529083,380.022522 380.827911,380.223358 376.231873,375.276825 
	C372.255219,370.996857 373.044861,365.122375 378.306671,359.954834 
	C395.769928,342.804321 413.170624,325.589172 430.756287,308.565155 
	C434.442841,304.996338 436.001740,301.304779 435.279144,296.148712 
	C434.755310,292.411224 435.536530,288.510040 435.430115,284.690399 
	C435.271301,278.991638 437.085876,273.151917 433.644287,267.405518 
z"/>
<path fill="#000000" opacity="1.000000" stroke="none" 
	d="
M543.551880,403.526520 
	C558.589783,393.054626 573.280334,382.711273 588.060547,372.497650 
	C592.908386,369.147644 598.773987,369.813141 601.587524,373.671997 
	C605.381836,378.875946 604.776550,384.873444 599.756470,388.824921 
	C587.981567,398.093323 575.205688,405.943115 562.953918,414.537476 
	C560.684021,416.129761 558.131348,417.410278 556.136536,420.464935 
	C561.371216,424.156189 566.422913,427.813995 571.572510,431.328522 
	C580.501282,437.422241 589.546143,443.346863 598.434753,449.497864 
	C604.342163,453.585815 605.667175,458.940887 602.364868,463.998535 
	C599.124084,468.961945 592.792725,470.047180 586.912659,466.102997 
	C576.413818,459.060791 566.110962,451.725952 555.739136,444.494995 
	C548.237366,439.264984 540.746216,434.019684 533.269165,428.754395 
	C524.871216,422.840515 525.314209,415.286987 534.224915,409.938110 
	C537.350586,408.061859 540.241394,405.794373 543.551880,403.526520 
z"/>
</svg>