<svg version="1.1" id="Layer_1" xmlns="http://www.w3.org/2000/svg" xmlns:xlink="http://www.w3.org/1999/xlink" x="0px" y="0px"
	 width="100%" viewBox="0 0 1024 784" enable-background="new 0 0 1024 784" xml:space="preserve">
<path fill="#000000" opacity="1.000000" stroke="none" 
	d="
M463.000000,601.040649 
	C444.670929,601.066101 426.841858,601.112854 409.012787,601.113770 
	C365.867462,601.116089 329.573456,573.291870 318.740723,531.617126 
	C316.906647,524.561157 315.852234,517.270142 315.854736,509.881378 
	C315.877197,443.896851 315.416199,377.908264 316.020203,311.929352 
	C316.354401,275.419739 338.765594,243.238037 373.286194,229.579803 
	C382.695435,225.856979 392.425140,223.891129 402.489716,223.882904 
	C480.304871,223.819244 558.123840,224.276367 635.933533,223.618622 
	C669.604126,223.334000 705.467590,246.205124 718.531067,279.685760 
	C722.864990,290.793091 725.321960,302.170044 725.303955,314.160431 
	C725.204956,380.311798 725.255310,446.463379 725.216431,512.614868 
	C725.196289,547.003784 702.319702,580.426819 670.276550,593.374084 
	C657.305969,598.614990 644.039124,601.257812 629.961121,601.190491 
	C574.475159,600.924927 518.987183,601.056702 463.000000,601.040649 
M550.499817,581.824036 
	C555.665100,581.813721 560.830505,581.825928 565.995544,581.787598 
	C572.823059,581.736938 572.883423,581.710876 572.888245,574.699219 
	C572.909180,544.208130 572.897888,513.717102 572.897400,483.226044 
	C572.896179,405.414825 572.906433,327.603638 572.873535,249.792435 
	C572.870422,242.326935 572.744995,242.271484 565.381165,242.267792 
	C512.062561,242.241074 458.743958,242.209427 405.425385,242.239792 
	C375.619415,242.256760 347.690002,262.712585 338.220245,290.907867 
	C334.408905,302.255646 334.956879,313.933868 334.709839,325.521057 
	C334.174072,350.652802 334.538116,375.791138 334.809204,400.930756 
	C335.211548,438.242584 335.021027,475.561035 335.029755,512.876648 
	C335.030945,517.911011 335.537659,522.896973 336.823090,527.709961 
	C345.414398,559.879089 374.091217,581.813599 407.540100,581.839600 
	C454.860016,581.876465 502.179993,581.835815 550.499817,581.824036 
M673.259766,253.228806 
	C665.938477,248.852524 658.260681,245.463776 649.818298,243.750763 
	C639.075195,241.570938 628.244080,242.506699 617.442200,242.284470 
	C615.064636,242.235565 613.398926,243.519882 611.835999,245.119217 
	C606.136780,250.951157 600.440796,256.787354 594.660095,262.537964 
	C592.871216,264.317535 592.177185,266.280090 592.200439,268.782867 
	C592.287109,278.112915 592.202942,287.444397 592.238770,296.775116 
	C592.244202,298.200195 591.810852,299.821716 593.339111,300.929108 
	C595.427124,300.840424 596.431458,299.134399 597.690186,297.896912 
	C610.397827,285.403656 622.994751,272.796570 635.797546,260.401917 
	C640.293213,256.049561 644.814270,256.290375 649.061951,260.400269 
	C652.854248,264.069550 653.161926,269.011108 649.767700,273.457184 
	C648.763306,274.772797 647.544312,275.934265 646.358459,277.100128 
	C629.607666,293.568817 612.835754,310.016144 596.100647,326.500824 
	C594.359436,328.215973 592.234924,329.713074 592.252686,332.633453 
	C592.315369,342.961914 592.303040,353.290771 592.333679,363.619446 
	C592.335876,364.341400 592.737549,364.849487 593.855530,365.225189 
	C597.112610,363.627411 599.473755,360.567474 602.158020,357.910980 
	C612.931824,347.248383 623.659119,336.538483 634.474670,325.918396 
	C637.290894,323.153076 640.546265,321.155884 644.795898,322.416382 
	C652.675903,324.753754 654.600891,333.153137 648.395996,339.310394 
	C631.017334,356.555603 613.543152,373.705750 595.965942,390.748322 
	C593.210205,393.420227 592.057068,396.142487 592.155762,399.948944 
	C592.384705,408.773956 592.185913,417.609314 592.253479,426.439819 
	C592.266541,428.150238 591.542969,430.161011 593.605835,431.519928 
	C595.441833,431.505005 596.451172,430.066650 597.598938,428.924713 
	C601.142090,425.399414 604.605042,421.793030 608.170410,418.290741 
	C617.200989,409.419891 626.124451,400.431824 635.385559,391.807220 
	C640.058228,387.455750 644.967163,387.820068 649.180359,391.902191 
	C653.148743,395.747162 653.143799,400.185852 649.075378,405.174896 
	C647.815125,406.720337 646.440552,408.185608 645.012756,409.579529 
	C628.443665,425.755188 611.889526,441.946594 595.225769,458.024292 
	C593.144653,460.032227 592.044189,462.011169 592.089661,464.943939 
	C592.237061,474.439392 592.155884,483.938232 592.217224,493.435394 
	C592.226318,494.845398 591.762817,496.506195 593.517456,497.429077 
	C595.419983,497.463959 596.452148,496.031586 597.601624,494.886261 
	C603.030273,489.477142 608.408630,484.017548 613.824402,478.595428 
	C620.769714,471.641968 627.649231,464.619690 634.718445,457.794159 
	C639.604614,453.076416 644.223022,452.822052 648.449646,456.598877 
	C653.288513,460.922791 653.438232,466.399323 648.484558,471.327240 
	C631.006165,488.714600 613.468628,506.043152 595.850464,523.288635 
	C593.429810,525.658081 592.066528,527.994934 592.141357,531.517090 
	C592.332336,540.510010 592.123108,549.510925 592.163574,558.508179 
	C592.171265,560.213074 591.504578,562.248413 593.561890,563.398926 
	C595.371460,563.532410 596.313477,562.225342 597.342529,561.202454 
	C606.439026,552.160522 615.484009,543.066711 624.584595,534.028870 
	C628.716431,529.925537 632.496765,525.410950 637.360840,522.126587 
	C641.333313,519.444275 645.735718,520.085571 649.144531,523.599854 
	C652.442749,527.000061 653.168701,530.867981 650.566956,534.950806 
	C649.327515,536.895691 647.770874,538.689392 646.125488,540.316528 
	C633.808838,552.496216 621.419312,564.602112 609.100952,576.780029 
	C607.881226,577.985901 605.999146,578.830139 606.033142,581.791626 
	C611.996338,581.791626 617.918701,581.707397 623.837769,581.811157 
	C633.012390,581.971985 642.306213,582.252686 651.178406,579.969299 
	C685.564270,571.119446 706.712524,543.446899 706.724731,508.034271 
	C706.746704,444.217712 706.728821,380.401062 706.834167,316.584625 
	C706.878418,289.748596 696.140137,268.679840 673.259766,253.228806 
z"/>
<path fill="#000000" opacity="1.000000" stroke="none" 
	d="
M501.244202,430.297424 
	C485.976135,441.028168 471.011078,451.566589 456.015259,462.061035 
	C454.111938,463.393036 452.128021,464.661530 450.041290,465.669098 
	C445.666077,467.781738 441.444305,466.574371 438.650513,462.627899 
	C435.763123,458.549286 436.019470,453.707245 439.880890,450.521881 
	C444.108124,447.034698 448.701294,443.984039 453.194305,440.827545 
	C461.904938,434.708099 470.696594,428.703400 479.377716,422.542694 
	C484.887817,418.632355 484.764130,417.603210 479.121643,413.766388 
	C466.601898,405.253113 454.056183,396.775726 441.646667,388.103943 
	C436.974792,384.839325 435.766083,380.677307 437.777863,376.424347 
	C439.760254,372.233490 443.078369,370.150024 447.834747,370.662109 
	C449.557556,370.847595 450.967957,371.664032 452.357910,372.620148 
	C470.453003,385.066864 488.605194,397.431305 506.638947,409.966187 
	C513.617249,414.816650 513.527039,420.998688 506.730499,426.203461 
	C505.013824,427.518066 503.269379,428.796509 501.244202,430.297424 
z"/>
</svg>