<svg width="101" height="131" viewBox="0 0 101 131" fill="none" xmlns="http://www.w3.org/2000/svg">
<path d="M83.5 116V118.5C83.5 124.023 79.0228 128.5 73.5 128.5H45H12.5C6.97715 128.5 2.5 124.023 2.5 118.5V34.75C2.5 29.2272 6.97715 24.75 12.5 24.75H17M83.5 116H88C93.5228 116 98 111.523 98 106V34.5M83.5 116H27C21.4772 116 17 111.523 17 106V24.75M98 34.5L64.5 2.5M98 34.5H74.5C68.9772 34.5 64.5 30.0228 64.5 24.5V2.5M64.5 2.5H27C21.4772 2.5 17 6.97715 17 12.5V24.75" stroke="black" stroke-width="5"/>
</svg>
