<svg width="132" height="202" viewBox="0 0 132 202" fill="none" xmlns="http://www.w3.org/2000/svg">
<path d="M58.5 153V188.796C58.5 194.319 54.0228 198.796 48.5 198.796H12.5C6.97715 198.796 2.5 194.319 2.5 188.796V139.796C2.5 134.274 6.97716 129.796 12.5 129.796H17.2692M58.5 153L32.0385 129.796M58.5 153H32.0385V129.796M32.0385 129.796H17.2692M17.2692 129.796V77.5H2.5M17.2692 129.796L26.4776 122.13C30.0709 119.138 34.5987 117.5 39.2744 117.5H61.5192H62.7968C69.206 117.5 75.227 114.428 78.989 109.239L87.5 97.5H73M2.5 77.5H48.5C54.0228 77.5 58.5 73.0228 58.5 67.5V24M2.5 77.5V12.5C2.5 6.97715 6.97716 2.5 12.5 2.5H32.0385M58.5 24L32.0385 2.5M58.5 24H42.0385C36.5156 24 32.0385 19.5228 32.0385 14V2.5M73 97.5H108H124.5C126.985 97.5 129 95.4853 129 93V48M73 97.5V34C73 28.4772 77.4772 24 83 24H103M129 48L103 24M129 48H103V24" stroke="black" stroke-width="5"/>
</svg>
