<svg width="183" height="177" viewBox="0 0 183 177" fill="none" xmlns="http://www.w3.org/2000/svg">
<path d="M81.5 2.5H12.5C6.97715 2.5 2.5 6.97715 2.5 12.5V164C2.5 169.523 6.97715 174 12.5 174H122C127.523 174 132 169.523 132 164V152.5V131V116.553C132 114.1 132.902 111.733 134.533 109.901L140 103.765M81.5 2.5L132 52M81.5 2.5V42C81.5 47.5228 85.9772 52 91.5 52H132M132 52V82.5M21.5 26H41.25H61M21.5 51H41.25H61M21.5 76H109.5M21.5 102H60H98.5M21.5 127H56.5H88.5M21.5 151H109.5M98.5 122L89.3966 141.572C89.0397 142.34 89.738 143.176 90.5567 142.961L109.5 138M98.5 122L109.5 138M98.5 122L163.537 48.4994C167.616 43.8891 174.92 44.2589 178.513 49.2577C181.136 52.906 180.875 57.8853 177.886 61.2399L109.5 138" stroke="black" stroke-width="5"/>
</svg>
