<svg width="15" height="15" viewBox="0 0 15 15" fill="none" xmlns="http://www.w3.org/2000/svg">
<path d="M4.16667 9C3.93056 9 3.7325 8.928 3.5725 8.784C3.41306 8.6405 3.33333 8.4625 3.33333 8.25C3.33333 8.0375 3.41306 7.85925 3.5725 7.71525C3.7325 7.57175 3.93056 7.5 4.16667 7.5H10.8333C11.0694 7.5 11.2672 7.57175 11.4267 7.71525C11.5867 7.85925 11.6667 8.0375 11.6667 8.25C11.6667 8.4625 11.5867 8.6405 11.4267 8.784C11.2672 8.928 11.0694 9 10.8333 9H4.16667ZM4.16667 12C3.93056 12 3.7325 11.928 3.5725 11.784C3.41306 11.6405 3.33333 11.4625 3.33333 11.25C3.33333 11.0375 3.41306 10.8595 3.5725 10.716C3.7325 10.572 3.93056 10.5 4.16667 10.5H8.33333C8.56944 10.5 8.7675 10.572 8.9275 10.716C9.08694 10.8595 9.16667 11.0375 9.16667 11.25C9.16667 11.4625 9.08694 11.6405 8.9275 11.784C8.7675 11.928 8.56944 12 8.33333 12H4.16667ZM1.66667 15C1.20833 15 0.815833 14.8533 0.489167 14.5598C0.163055 14.2658 0 13.9125 0 13.5V3C0 2.5875 0.163055 2.2345 0.489167 1.941C0.815833 1.647 1.20833 1.5 1.66667 1.5H2.5V0.75C2.5 0.5375 2.57972 0.35925 2.73917 0.21525C2.89917 0.07175 3.09722 0 3.33333 0C3.56944 0 3.7675 0.07175 3.9275 0.21525C4.08694 0.35925 4.16667 0.5375 4.16667 0.75V1.5H10.8333V0.75C10.8333 0.5375 10.9133 0.35925 11.0733 0.21525C11.2328 0.07175 11.4306 0 11.6667 0C11.9028 0 12.1006 0.07175 12.26 0.21525C12.42 0.35925 12.5 0.5375 12.5 0.75V1.5H13.3333C13.7917 1.5 14.1842 1.647 14.5108 1.941C14.8369 2.2345 15 2.5875 15 3V13.5C15 13.9125 14.8369 14.2658 14.5108 14.5598C14.1842 14.8533 13.7917 15 13.3333 15H1.66667ZM1.66667 13.5H13.3333V6H1.66667V13.5Z" fill="#3E3E3E"/>
</svg>
